<?xml version="1.0" encoding="UTF-8"?><svg xmlns="http://www.w3.org/2000/svg" xmlns:xlink="http://www.w3.org/1999/xlink" fill-opacity="1" color-rendering="auto" color-interpolation="auto" text-rendering="auto" stroke="black" stroke-linecap="square" width="1396" stroke-miterlimit="10" shape-rendering="auto" stroke-opacity="1" fill="black" stroke-dasharray="none" font-weight="normal" stroke-width="1" height="1435" font-family="'Dialog'" font-style="normal" stroke-linejoin="miter" font-size="12px" stroke-dashoffset="0" image-rendering="auto">
  <!--Generated by ySVG 2.5-->
  <defs id="genericDefs"/>
  <g>
    <defs id="defs1">
      <clipPath clipPathUnits="userSpaceOnUse" id="clipPath1">
        <path d="M0 0 L1396 0 L1396 1435 L0 1435 L0 0 Z"/>
      </clipPath>
      <clipPath clipPathUnits="userSpaceOnUse" id="clipPath2">
        <path d="M-22 -22 L1972.2858 -22 L1972.2858 2028 L-22 2028 L-22 -22 Z"/>
      </clipPath>
      <clipPath clipPathUnits="userSpaceOnUse" id="clipPath3">
        <path d="M-874.3927 -373.4648 L1119.8931 -373.4648 L1119.8931 1676.5352 L-874.3927 1676.5352 L-874.3927 -373.4648 Z"/>
      </clipPath>
    </defs>
    <g fill="white" text-rendering="geometricPrecision" shape-rendering="geometricPrecision" transform="scale(0.7,0.7) translate(22,22)" stroke="white">
      <rect x="-22" width="1995" height="2050" y="-22" clip-path="url(#clipPath2)" stroke="none"/>
    </g>
    <g transform="matrix(0.7,0,0,0.7,15.4,15.4)" fill-opacity="0.5098" fill="rgb(221,216,202)" text-rendering="geometricPrecision" shape-rendering="geometricPrecision" stroke="rgb(221,216,202)" stroke-opacity="0.5098">
      <rect x="0" y="0" clip-path="url(#clipPath2)" width="1951" rx="4" ry="4" height="2006.9531" stroke="none"/>
    </g>
    <g font-size="14px" stroke-linecap="butt" transform="matrix(0.7,0,0,0.7,15.4,15.4)" text-rendering="geometricPrecision" font-family="sans-serif" shape-rendering="geometricPrecision" stroke-miterlimit="1.45">
      <text x="895.1196" xml:space="preserve" y="15.5352" clip-path="url(#clipPath2)" stroke="none">Neutrophil:extracellular</text>
      <rect x="0" y="0" clip-path="url(#clipPath2)" fill="none" width="1951" rx="4" ry="4" height="2006.9531" stroke-width="3"/>
    </g>
    <g fill="rgb(188,214,241)" text-rendering="geometricPrecision" shape-rendering="geometricPrecision" transform="matrix(0.7,0,0,0.7,15.4,15.4)" stroke="rgb(188,214,241)">
      <path d="M753 1931.9531 L853 1931.9531 L853 1991.9531 L753 1991.9531 Z" stroke="none" clip-path="url(#clipPath2)"/>
    </g>
    <g text-rendering="geometricPrecision" stroke-miterlimit="1.45" shape-rendering="geometricPrecision" transform="matrix(0.7,0,0,0.7,15.4,15.4)" stroke-linecap="butt">
      <path fill="none" d="M753 1931.9531 L853 1931.9531 L853 1991.9531 L753 1991.9531 Z" clip-path="url(#clipPath2)"/>
      <text x="792.8247" font-size="14px" y="1967.2441" clip-path="url(#clipPath2)" font-family="sans-serif" stroke="none" xml:space="preserve">IL6</text>
    </g>
    <g fill="rgb(188,214,241)" text-rendering="geometricPrecision" shape-rendering="geometricPrecision" transform="matrix(0.7,0,0,0.7,15.4,15.4)" stroke="rgb(188,214,241)">
      <path d="M935.5 35.4883 L1035.5 35.4883 L1035.5 95.4883 L935.5 95.4883 Z" stroke="none" clip-path="url(#clipPath2)"/>
    </g>
    <g text-rendering="geometricPrecision" stroke-miterlimit="1.45" shape-rendering="geometricPrecision" transform="matrix(0.7,0,0,0.7,15.4,15.4)" stroke-linecap="butt">
      <path fill="none" d="M935.5 35.4883 L1035.5 35.4883 L1035.5 95.4883 L935.5 95.4883 Z" clip-path="url(#clipPath2)"/>
      <text x="970.4951" font-size="14px" y="70.7793" clip-path="url(#clipPath2)" font-family="sans-serif" stroke="none" xml:space="preserve">IL1A</text>
    </g>
    <g transform="matrix(0.7,0,0,0.7,15.4,15.4)" fill-opacity="0.5098" fill="rgb(201,196,182)" text-rendering="geometricPrecision" shape-rendering="geometricPrecision" stroke="rgb(201,196,182)" stroke-opacity="0.5098">
      <rect x="16" y="100.4883" clip-path="url(#clipPath2)" width="1919" rx="4" ry="4" height="1776.4648" stroke="none"/>
    </g>
    <g font-size="14px" stroke-linecap="butt" transform="matrix(0.7,0,0,0.7,15.4,15.4)" text-rendering="geometricPrecision" font-family="sans-serif" shape-rendering="geometricPrecision" stroke-miterlimit="1.45">
      <text x="900.9404" xml:space="preserve" y="116.0234" clip-path="url(#clipPath2)" stroke="none">Neutrophil:membrane</text>
      <rect x="16" y="100.4883" clip-path="url(#clipPath2)" fill="none" width="1919" rx="4" ry="4" height="1776.4648" stroke-width="3"/>
    </g>
    <g fill="rgb(188,214,241)" text-rendering="geometricPrecision" shape-rendering="geometricPrecision" transform="matrix(0.7,0,0,0.7,15.4,15.4)" stroke="rgb(188,214,241)">
      <path d="M785.5 135.9766 L885.5 135.9766 L885.5 195.9766 L785.5 195.9766 Z" stroke="none" clip-path="url(#clipPath2)"/>
    </g>
    <g text-rendering="geometricPrecision" stroke-miterlimit="1.45" shape-rendering="geometricPrecision" transform="matrix(0.7,0,0,0.7,15.4,15.4)" stroke-linecap="butt">
      <path fill="none" d="M785.5 135.9766 L885.5 135.9766 L885.5 195.9766 L785.5 195.9766 Z" clip-path="url(#clipPath2)"/>
      <text x="805.7158" font-size="14px" y="171.2676" clip-path="url(#clipPath2)" font-family="sans-serif" stroke="none" xml:space="preserve">ADAM10</text>
    </g>
    <g fill="rgb(188,214,241)" text-rendering="geometricPrecision" shape-rendering="geometricPrecision" transform="matrix(0.7,0,0,0.7,15.4,15.4)" stroke="rgb(188,214,241)">
      <path d="M680.5 220.9766 L780.5 220.9766 L780.5 280.9766 L680.5 280.9766 Z" stroke="none" clip-path="url(#clipPath2)"/>
    </g>
    <g text-rendering="geometricPrecision" stroke-miterlimit="1.45" shape-rendering="geometricPrecision" transform="matrix(0.7,0,0,0.7,15.4,15.4)" stroke-linecap="butt">
      <path fill="none" d="M680.5 220.9766 L780.5 220.9766 L780.5 280.9766 L680.5 280.9766 Z" clip-path="url(#clipPath2)"/>
      <text x="695.312" font-size="14px" y="256.2676" clip-path="url(#clipPath2)" font-family="sans-serif" stroke="none" xml:space="preserve">IL6ST;IL6R</text>
    </g>
    <g fill="rgb(188,214,241)" text-rendering="geometricPrecision" shape-rendering="geometricPrecision" transform="matrix(0.7,0,0,0.7,15.4,15.4)" stroke="rgb(188,214,241)">
      <path d="M655.5 135.9766 L755.5 135.9766 L755.5 195.9766 L655.5 195.9766 Z" stroke="none" clip-path="url(#clipPath2)"/>
    </g>
    <g text-rendering="geometricPrecision" stroke-miterlimit="1.45" shape-rendering="geometricPrecision" transform="matrix(0.7,0,0,0.7,15.4,15.4)" stroke-linecap="butt">
      <path fill="none" d="M655.5 135.9766 L755.5 135.9766 L755.5 195.9766 L655.5 195.9766 Z" clip-path="url(#clipPath2)"/>
      <text x="675.7158" font-size="14px" y="171.2676" clip-path="url(#clipPath2)" font-family="sans-serif" stroke="none" xml:space="preserve">ADAM17</text>
    </g>
    <g fill="rgb(188,214,241)" text-rendering="geometricPrecision" shape-rendering="geometricPrecision" transform="matrix(0.7,0,0,0.7,15.4,15.4)" stroke="rgb(188,214,241)">
      <path d="M975.5 220.9766 L1075.5 220.9766 L1075.5 280.9766 L975.5 280.9766 Z" stroke="none" clip-path="url(#clipPath2)"/>
    </g>
    <g text-rendering="geometricPrecision" stroke-miterlimit="1.45" shape-rendering="geometricPrecision" transform="matrix(0.7,0,0,0.7,15.4,15.4)" stroke-linecap="butt">
      <path fill="none" d="M975.5 220.9766 L1075.5 220.9766 L1075.5 280.9766 L975.5 280.9766 Z" clip-path="url(#clipPath2)"/>
      <text x="1006.4722" font-size="14px" y="256.2676" clip-path="url(#clipPath2)" font-family="sans-serif" stroke="none" xml:space="preserve">IL1R1</text>
    </g>
    <g fill="rgb(188,214,241)" text-rendering="geometricPrecision" shape-rendering="geometricPrecision" transform="matrix(0.7,0,0,0.7,15.4,15.4)" stroke="rgb(188,214,241)">
      <path d="M1000.5 135.9766 L1100.5 135.9766 L1100.5 195.9766 L1000.5 195.9766 Z" stroke="none" clip-path="url(#clipPath2)"/>
    </g>
    <g text-rendering="geometricPrecision" stroke-miterlimit="1.45" shape-rendering="geometricPrecision" transform="matrix(0.7,0,0,0.7,15.4,15.4)" stroke-linecap="butt">
      <path fill="none" d="M1000.5 135.9766 L1100.5 135.9766 L1100.5 195.9766 L1000.5 195.9766 Z" clip-path="url(#clipPath2)"/>
      <text x="1027.1997" font-size="14px" y="171.2676" clip-path="url(#clipPath2)" font-family="sans-serif" stroke="none" xml:space="preserve">IL1RAP</text>
    </g>
    <g text-rendering="geometricPrecision" stroke-miterlimit="1.45" shape-rendering="geometricPrecision" transform="matrix(0.7,0,0,0.7,15.4,15.4)" stroke-linecap="butt">
      <path fill="none" d="M835.5 195.9766 L835.5 200.9766 L834.875 203.1641 L833 204.7266 L825.5 205.9766 L765.5 205.9766 L761.125 206.4444 L758 207.8479 L756.125 210.1871 L755.5 213.4619 L755.5 220.9473" clip-path="url(#clipPath2)"/>
      <path fill="white" d="M755.5 220.9473 L761.5 204.9473 L749.5 204.9473 Z" clip-path="url(#clipPath2)" stroke="none"/>
      <path fill="none" d="M755.5 220.9473 L761.5 204.9473 L749.5 204.9473 Z" clip-path="url(#clipPath2)"/>
      <path fill="none" d="M758.5555 1931.9238 L758.5555 1924.4385 L757.9305 1921.1636 L756.0555 1918.8245 L752.9305 1917.4209 L748.5555 1916.9531 L42 1916.9531 L37.625 1916.3281 L34.5 1914.4531 L32.625 1911.3281 L32 1906.9531 L32 305.9766 L32.625 301.6016 L34.5 298.4766 L37.625 296.6016 L42 295.9766 L680.5 295.9766 L684.875 295.5078 L688 294.1016 L689.875 291.7578 L690.5 288.4766 L690.5 280.9766" clip-path="url(#clipPath2)"/>
      <path fill="white" d="M690.5 280.9766 L684.5 296.9766 L696.5 296.9766 Z" clip-path="url(#clipPath2)" stroke="none"/>
      <path fill="none" d="M690.5 280.9766 L684.5 296.9766 L696.5 296.9766 Z" clip-path="url(#clipPath2)"/>
      <path fill="none" d="M705.5 195.9766 L705.5 205.9277" clip-path="url(#clipPath2)"/>
      <path fill="white" d="M705.5 220.9277 L711.5 204.9277 L699.5 204.9277 Z" clip-path="url(#clipPath2)" stroke="none"/>
      <path fill="none" d="M705.5 220.9277 L711.5 204.9277 L699.5 204.9277 Z" clip-path="url(#clipPath2)"/>
      <path fill="none" d="M985.5 95.4883 L985.5 195.9766 L985.9688 200.3516 L987.375 203.4766 L989.7188 205.3516 L993 205.9766 L993 205.9766 L996.2812 206.4444 L998.625 207.8479 L1000.0312 210.1871 L1000.5 213.4619 L1000.5 220.9473" clip-path="url(#clipPath2)"/>
      <path fill="white" d="M1000.5 220.9473 L1006.5 204.9473 L994.5 204.9473 Z" clip-path="url(#clipPath2)" stroke="none"/>
      <path fill="none" d="M1000.5 220.9473 L1006.5 204.9473 L994.5 204.9473 Z" clip-path="url(#clipPath2)"/>
      <path fill="none" d="M1050.5 195.9766 L1050.5 205.9277" clip-path="url(#clipPath2)"/>
      <path fill="white" d="M1050.5 220.9277 L1056.5 204.9277 L1044.5 204.9277 Z" clip-path="url(#clipPath2)" stroke="none"/>
      <path fill="none" d="M1050.5 220.9277 L1056.5 204.9277 L1044.5 204.9277 Z" clip-path="url(#clipPath2)"/>
    </g>
    <g transform="matrix(0.7,0,0,0.7,15.4,15.4)" fill-opacity="0.5098" fill="rgb(181,176,162)" text-rendering="geometricPrecision" shape-rendering="geometricPrecision" stroke="rgb(181,176,162)" stroke-opacity="0.5098">
      <rect x="47" y="315.9766" clip-path="url(#clipPath2)" width="1872" rx="4" ry="4" height="1545.9766" stroke="none"/>
    </g>
    <g font-size="14px" stroke-linecap="butt" transform="matrix(0.7,0,0,0.7,15.4,15.4)" text-rendering="geometricPrecision" font-family="sans-serif" shape-rendering="geometricPrecision" stroke-miterlimit="1.45">
      <text x="920.7383" xml:space="preserve" y="331.5117" clip-path="url(#clipPath2)" stroke="none">Neutrophil:cytosol</text>
      <rect x="47" y="315.9766" clip-path="url(#clipPath2)" fill="none" width="1872" rx="4" ry="4" height="1545.9766" stroke-width="3"/>
    </g>
    <g fill="white" text-rendering="geometricPrecision" shape-rendering="geometricPrecision" transform="matrix(0.7,0,0,0.7,15.4,15.4)" stroke="white">
      <rect x="288" width="160" height="80" y="1071.4648" clip-path="url(#clipPath2)" stroke="none"/>
    </g>
    <g text-rendering="geometricPrecision" stroke-miterlimit="1.45" shape-rendering="geometricPrecision" transform="matrix(0.7,0,0,0.7,15.4,15.4)" stroke-linecap="butt">
      <rect fill="none" x="288" width="160" height="80" y="1071.4648" clip-path="url(#clipPath2)"/>
      <text x="310.021" font-size="14px" y="1108.5117" clip-path="url(#clipPath2)" font-family="sans-serif" stroke="none" xml:space="preserve">**Glucocorticoid </text>
      <text x="337.0776" font-size="14px" y="1125" clip-path="url(#clipPath2)" font-family="sans-serif" stroke="none" xml:space="preserve">signaling</text>
    </g>
    <g fill="white" text-rendering="geometricPrecision" shape-rendering="geometricPrecision" transform="matrix(0.7,0,0,0.7,15.4,15.4)" stroke="white">
      <rect x="833" width="160" height="80" y="1071.4648" clip-path="url(#clipPath2)" stroke="none"/>
    </g>
    <g text-rendering="geometricPrecision" stroke-miterlimit="1.45" shape-rendering="geometricPrecision" transform="matrix(0.7,0,0,0.7,15.4,15.4)" stroke-linecap="butt">
      <rect fill="none" x="833" width="160" height="80" y="1071.4648" clip-path="url(#clipPath2)"/>
      <text x="865.7158" font-size="14px" y="1108.5117" clip-path="url(#clipPath2)" font-family="sans-serif" stroke="none" xml:space="preserve">**IFN gamma </text>
      <text x="882.0776" font-size="14px" y="1125" clip-path="url(#clipPath2)" font-family="sans-serif" stroke="none" xml:space="preserve">signaling</text>
    </g>
    <g fill="white" text-rendering="geometricPrecision" shape-rendering="geometricPrecision" transform="matrix(0.7,0,0,0.7,15.4,15.4)" stroke="white">
      <rect x="478" width="160" height="80" y="1071.4648" clip-path="url(#clipPath2)" stroke="none"/>
    </g>
    <g text-rendering="geometricPrecision" stroke-miterlimit="1.45" shape-rendering="geometricPrecision" transform="matrix(0.7,0,0,0.7,15.4,15.4)" stroke-linecap="butt">
      <rect fill="none" x="478" width="160" height="80" y="1071.4648" clip-path="url(#clipPath2)"/>
      <text x="503.8901" font-size="14px" y="1116.7559" clip-path="url(#clipPath2)" font-family="sans-serif" stroke="none" xml:space="preserve">**IL-1 signaling</text>
    </g>
    <g fill="rgb(188,214,241)" text-rendering="geometricPrecision" shape-rendering="geometricPrecision" transform="matrix(0.7,0,0,0.7,15.4,15.4)" stroke="rgb(188,214,241)">
      <path d="M145.8564 1501.9531 L245.8564 1501.9531 L245.8564 1561.9531 L145.8564 1561.9531 Z" stroke="none" clip-path="url(#clipPath2)"/>
    </g>
    <g text-rendering="geometricPrecision" stroke-miterlimit="1.45" shape-rendering="geometricPrecision" transform="matrix(0.7,0,0,0.7,15.4,15.4)" stroke-linecap="butt">
      <path fill="none" d="M145.8564 1501.9531 L245.8564 1501.9531 L245.8564 1561.9531 L145.8564 1561.9531 Z" clip-path="url(#clipPath2)"/>
      <text x="147.5331" font-size="14px" y="1520.7559" clip-path="url(#clipPath2)" font-family="sans-serif" stroke="none" xml:space="preserve">NFKB1;NFKB2;</text>
      <text x="162.6918" font-size="14px" y="1537.2441" clip-path="url(#clipPath2)" font-family="sans-serif" stroke="none" xml:space="preserve">REL;RELA;</text>
      <text x="179.8773" font-size="14px" y="1553.7324" clip-path="url(#clipPath2)" font-family="sans-serif" stroke="none" xml:space="preserve">RELB</text>
    </g>
    <g fill="white" text-rendering="geometricPrecision" shape-rendering="geometricPrecision" transform="matrix(0.7,0,0,0.7,15.4,15.4)" stroke="white">
      <rect x="1043" width="160" height="80" y="1071.4648" clip-path="url(#clipPath2)" stroke="none"/>
    </g>
    <g text-rendering="geometricPrecision" stroke-miterlimit="1.45" shape-rendering="geometricPrecision" transform="matrix(0.7,0,0,0.7,15.4,15.4)" stroke-linecap="butt">
      <rect fill="none" x="1043" width="160" height="80" y="1071.4648" clip-path="url(#clipPath2)"/>
      <text x="1084.9819" font-size="14px" y="1108.5117" clip-path="url(#clipPath2)" font-family="sans-serif" stroke="none" xml:space="preserve">**IL-6 and </text>
      <text x="1075.6372" font-size="14px" y="1125" clip-path="url(#clipPath2)" font-family="sans-serif" stroke="none" xml:space="preserve">IL-1 signaling</text>
    </g>
    <g fill="white" text-rendering="geometricPrecision" shape-rendering="geometricPrecision" transform="matrix(0.7,0,0,0.7,15.4,15.4)" stroke="white">
      <rect x="98" width="160" height="80" y="1071.4648" clip-path="url(#clipPath2)" stroke="none"/>
    </g>
    <g text-rendering="geometricPrecision" stroke-miterlimit="1.45" shape-rendering="geometricPrecision" transform="matrix(0.7,0,0,0.7,15.4,15.4)" stroke-linecap="butt">
      <rect fill="none" x="98" width="160" height="80" y="1071.4648" clip-path="url(#clipPath2)"/>
      <text x="121.5352" font-size="14px" y="1100.2676" clip-path="url(#clipPath2)" font-family="sans-serif" stroke="none" xml:space="preserve">**MIF-mediated </text>
      <text x="127.4619" font-size="14px" y="1116.7559" clip-path="url(#clipPath2)" font-family="sans-serif" stroke="none" xml:space="preserve">glucocorticoid </text>
      <text x="143.3521" font-size="14px" y="1133.2441" clip-path="url(#clipPath2)" font-family="sans-serif" stroke="none" xml:space="preserve">regulation</text>
    </g>
    <g fill="white" text-rendering="geometricPrecision" shape-rendering="geometricPrecision" transform="matrix(0.7,0,0,0.7,15.4,15.4)" stroke="white">
      <rect x="1553" width="160" height="80" y="1071.4648" clip-path="url(#clipPath2)" stroke="none"/>
    </g>
    <g text-rendering="geometricPrecision" stroke-miterlimit="1.45" shape-rendering="geometricPrecision" transform="matrix(0.7,0,0,0.7,15.4,15.4)" stroke-linecap="butt">
      <rect fill="none" x="1553" width="160" height="80" y="1071.4648" clip-path="url(#clipPath2)"/>
      <text x="1572.9702" font-size="14px" y="1108.5117" clip-path="url(#clipPath2)" font-family="sans-serif" stroke="none" xml:space="preserve">**TLR2 and TLR4 </text>
      <text x="1602.0776" font-size="14px" y="1125" clip-path="url(#clipPath2)" font-family="sans-serif" stroke="none" xml:space="preserve">signaling</text>
    </g>
    <g fill="white" text-rendering="geometricPrecision" shape-rendering="geometricPrecision" transform="matrix(0.7,0,0,0.7,15.4,15.4)" stroke="white">
      <rect x="1233" width="160" height="80" y="1071.4648" clip-path="url(#clipPath2)" stroke="none"/>
    </g>
    <g text-rendering="geometricPrecision" stroke-miterlimit="1.45" shape-rendering="geometricPrecision" transform="matrix(0.7,0,0,0.7,15.4,15.4)" stroke-linecap="butt">
      <rect fill="none" x="1233" width="160" height="80" y="1071.4648" clip-path="url(#clipPath2)"/>
      <text x="1263.3711" font-size="14px" y="1100.2676" clip-path="url(#clipPath2)" font-family="sans-serif" stroke="none" xml:space="preserve">**TLR5, TLR7, </text>
      <text x="1259.7173" font-size="14px" y="1116.7559" clip-path="url(#clipPath2)" font-family="sans-serif" stroke="none" xml:space="preserve">TLR8 and TLR8 </text>
      <text x="1282.0776" font-size="14px" y="1133.2441" clip-path="url(#clipPath2)" font-family="sans-serif" stroke="none" xml:space="preserve">singaling</text>
    </g>
    <g fill="white" text-rendering="geometricPrecision" shape-rendering="geometricPrecision" transform="matrix(0.7,0,0,0.7,15.4,15.4)" stroke="white">
      <rect x="1743" width="160" height="80" y="1071.4648" clip-path="url(#clipPath2)" stroke="none"/>
    </g>
    <g text-rendering="geometricPrecision" stroke-miterlimit="1.45" shape-rendering="geometricPrecision" transform="matrix(0.7,0,0,0.7,15.4,15.4)" stroke-linecap="butt">
      <rect fill="none" x="1743" width="160" height="80" y="1071.4648" clip-path="url(#clipPath2)"/>
      <text x="1778.1323" font-size="14px" y="1108.5117" clip-path="url(#clipPath2)" font-family="sans-serif" stroke="none" xml:space="preserve">**TNF-alpha </text>
      <text x="1792.0776" font-size="14px" y="1125" clip-path="url(#clipPath2)" font-family="sans-serif" stroke="none" xml:space="preserve">signaling</text>
    </g>
    <g fill="rgb(188,214,241)" text-rendering="geometricPrecision" shape-rendering="geometricPrecision" transform="matrix(0.7,0,0,0.7,15.4,15.4)" stroke="rgb(188,214,241)">
      <path d="M703 1081.4648 L803 1081.4648 L803 1141.4648 L703 1141.4648 Z" stroke="none" clip-path="url(#clipPath2)"/>
    </g>
    <g text-rendering="geometricPrecision" stroke-miterlimit="1.45" shape-rendering="geometricPrecision" transform="matrix(0.7,0,0,0.7,15.4,15.4)" stroke-linecap="butt">
      <path fill="none" d="M703 1081.4648 L803 1081.4648 L803 1141.4648 L703 1141.4648 Z" clip-path="url(#clipPath2)"/>
      <text x="727.061" font-size="14px" y="1108.5117" clip-path="url(#clipPath2)" font-family="sans-serif" stroke="none" xml:space="preserve">MAPK1;</text>
      <text x="729.2759" font-size="14px" y="1125" clip-path="url(#clipPath2)" font-family="sans-serif" stroke="none" xml:space="preserve">MAPK3</text>
    </g>
    <g fill="rgb(188,214,241)" text-rendering="geometricPrecision" shape-rendering="geometricPrecision" transform="matrix(0.7,0,0,0.7,15.4,15.4)" stroke="rgb(188,214,241)">
      <path d="M740.5 636.4648 L840.5 636.4648 L840.5 696.4648 L740.5 696.4648 Z" stroke="none" clip-path="url(#clipPath2)"/>
    </g>
    <g text-rendering="geometricPrecision" stroke-miterlimit="1.45" shape-rendering="geometricPrecision" transform="matrix(0.7,0,0,0.7,15.4,15.4)" stroke-linecap="butt">
      <path fill="none" d="M740.5 636.4648 L840.5 636.4648 L840.5 696.4648 L740.5 696.4648 Z" clip-path="url(#clipPath2)"/>
      <text x="772.5625" font-size="14px" y="671.7559" clip-path="url(#clipPath2)" font-family="sans-serif" stroke="none" xml:space="preserve">GRB2</text>
    </g>
    <g fill="rgb(188,214,241)" text-rendering="geometricPrecision" shape-rendering="geometricPrecision" transform="matrix(0.7,0,0,0.7,15.4,15.4)" stroke="rgb(188,214,241)">
      <path d="M780.5 721.4648 L880.5 721.4648 L880.5 781.4648 L780.5 781.4648 Z" stroke="none" clip-path="url(#clipPath2)"/>
    </g>
    <g text-rendering="geometricPrecision" stroke-miterlimit="1.45" shape-rendering="geometricPrecision" transform="matrix(0.7,0,0,0.7,15.4,15.4)" stroke-linecap="butt">
      <path fill="none" d="M780.5 721.4648 L880.5 721.4648 L880.5 781.4648 L780.5 781.4648 Z" clip-path="url(#clipPath2)"/>
      <text x="793.4766" font-size="14px" y="756.7559" clip-path="url(#clipPath2)" font-family="sans-serif" stroke="none" xml:space="preserve">SOS1;SOS2</text>
    </g>
    <g fill="rgb(188,214,241)" text-rendering="geometricPrecision" shape-rendering="geometricPrecision" transform="matrix(0.7,0,0,0.7,15.4,15.4)" stroke="rgb(188,214,241)">
      <path d="M780.5 801.4648 L880.5 801.4648 L880.5 861.4648 L780.5 861.4648 Z" stroke="none" clip-path="url(#clipPath2)"/>
    </g>
    <g text-rendering="geometricPrecision" stroke-miterlimit="1.45" shape-rendering="geometricPrecision" transform="matrix(0.7,0,0,0.7,15.4,15.4)" stroke-linecap="butt">
      <path fill="none" d="M780.5 801.4648 L880.5 801.4648 L880.5 861.4648 L780.5 861.4648 Z" clip-path="url(#clipPath2)"/>
      <text x="812.3301" font-size="14px" y="836.7559" clip-path="url(#clipPath2)" font-family="sans-serif" stroke="none" xml:space="preserve">HRAS</text>
    </g>
    <g fill="rgb(188,214,241)" text-rendering="geometricPrecision" shape-rendering="geometricPrecision" transform="matrix(0.7,0,0,0.7,15.4,15.4)" stroke="rgb(188,214,241)">
      <path d="M877.4841 886.4648 L977.4841 886.4648 L977.4841 946.4648 L877.4841 946.4648 Z" stroke="none" clip-path="url(#clipPath2)"/>
    </g>
    <g text-rendering="geometricPrecision" stroke-miterlimit="1.45" shape-rendering="geometricPrecision" transform="matrix(0.7,0,0,0.7,15.4,15.4)" stroke-linecap="butt">
      <path fill="none" d="M877.4841 886.4648 L977.4841 886.4648 L977.4841 946.4648 L877.4841 946.4648 Z" clip-path="url(#clipPath2)"/>
      <text x="910.0491" font-size="14px" y="921.7559" clip-path="url(#clipPath2)" font-family="sans-serif" stroke="none" xml:space="preserve">RAF1</text>
    </g>
    <g fill="rgb(188,214,241)" text-rendering="geometricPrecision" shape-rendering="geometricPrecision" transform="matrix(0.7,0,0,0.7,15.4,15.4)" stroke="rgb(188,214,241)">
      <path d="M590.5 446.4648 L690.5 446.4648 L690.5 506.4648 L590.5 506.4648 Z" stroke="none" clip-path="url(#clipPath2)"/>
    </g>
    <g text-rendering="geometricPrecision" stroke-miterlimit="1.45" shape-rendering="geometricPrecision" transform="matrix(0.7,0,0,0.7,15.4,15.4)" stroke-linecap="butt">
      <path fill="none" d="M590.5 446.4648 L690.5 446.4648 L690.5 506.4648 L590.5 506.4648 Z" clip-path="url(#clipPath2)"/>
      <text x="624.4971" font-size="14px" y="481.7559" clip-path="url(#clipPath2)" font-family="sans-serif" stroke="none" xml:space="preserve">JAK1</text>
    </g>
    <g fill="rgb(188,214,241)" text-rendering="geometricPrecision" shape-rendering="geometricPrecision" transform="matrix(0.7,0,0,0.7,15.4,15.4)" stroke="rgb(188,214,241)">
      <path d="M688 551.4648 L788 551.4648 L788 611.4648 L688 611.4648 Z" stroke="none" clip-path="url(#clipPath2)"/>
    </g>
    <g text-rendering="geometricPrecision" stroke-miterlimit="1.45" shape-rendering="geometricPrecision" transform="matrix(0.7,0,0,0.7,15.4,15.4)" stroke-linecap="butt">
      <path fill="none" d="M688 551.4648 L788 551.4648 L788 611.4648 L688 611.4648 Z" clip-path="url(#clipPath2)"/>
      <text x="711.8115" font-size="14px" y="586.7559" clip-path="url(#clipPath2)" font-family="sans-serif" stroke="none" xml:space="preserve">PTPN11</text>
    </g>
    <g fill="rgb(188,214,241)" text-rendering="geometricPrecision" shape-rendering="geometricPrecision" transform="matrix(0.7,0,0,0.7,15.4,15.4)" stroke="rgb(188,214,241)">
      <path d="M63 361.4648 L163 361.4648 L163 421.4648 L63 421.4648 Z" stroke="none" clip-path="url(#clipPath2)"/>
    </g>
    <g text-rendering="geometricPrecision" stroke-miterlimit="1.45" shape-rendering="geometricPrecision" transform="matrix(0.7,0,0,0.7,15.4,15.4)" stroke-linecap="butt">
      <path fill="none" d="M63 361.4648 L163 361.4648 L163 421.4648 L63 421.4648 Z" clip-path="url(#clipPath2)"/>
      <text x="95.5581" font-size="14px" y="396.7559" clip-path="url(#clipPath2)" font-family="sans-serif" stroke="none" xml:space="preserve">JUND</text>
    </g>
    <g fill="rgb(188,214,241)" text-rendering="geometricPrecision" shape-rendering="geometricPrecision" transform="matrix(0.7,0,0,0.7,15.4,15.4)" stroke="rgb(188,214,241)">
      <path d="M902.4841 981.4648 L1002.4841 981.4648 L1002.4841 1041.4648 L902.4841 1041.4648 Z" stroke="none" clip-path="url(#clipPath2)"/>
    </g>
    <g text-rendering="geometricPrecision" stroke-miterlimit="1.45" shape-rendering="geometricPrecision" transform="matrix(0.7,0,0,0.7,15.4,15.4)" stroke-linecap="butt">
      <path fill="none" d="M902.4841 981.4648 L1002.4841 981.4648 L1002.4841 1041.4648 L902.4841 1041.4648 Z" clip-path="url(#clipPath2)"/>
      <text x="922.1189" font-size="14px" y="1008.5117" clip-path="url(#clipPath2)" font-family="sans-serif" stroke="none" xml:space="preserve">MAP2K1;</text>
      <text x="924.3337" font-size="14px" y="1025" clip-path="url(#clipPath2)" font-family="sans-serif" stroke="none" xml:space="preserve">MAP2K2</text>
    </g>
    <g fill="rgb(221,216,202)" text-rendering="geometricPrecision" shape-rendering="geometricPrecision" transform="matrix(0.7,0,0,0.7,15.4,15.4)" stroke="rgb(221,216,202)">
      <path d="M792.2528 361.4648 L892.2528 361.4648 L892.2528 421.4648 L792.2528 421.4648 Z" stroke="none" clip-path="url(#clipPath2)"/>
    </g>
    <g text-rendering="geometricPrecision" stroke-miterlimit="1.45" shape-rendering="geometricPrecision" transform="matrix(0.7,0,0,0.7,15.4,15.4)" stroke-linecap="butt">
      <path fill="none" d="M792.2528 361.4648 L892.2528 361.4648 L892.2528 421.4648 L792.2528 421.4648 Z" clip-path="url(#clipPath2)"/>
      <text x="787.5004" font-size="14px" y="396.7559" clip-path="url(#clipPath2)" font-family="sans-serif" stroke="none" xml:space="preserve">*PtdIns(3,4,5)P3</text>
    </g>
    <g fill="white" text-rendering="geometricPrecision" shape-rendering="geometricPrecision" transform="matrix(0.7,0,0,0.7,15.4,15.4) translate(852.3927,351.4648)" stroke="white">
      <rect x="0" y="0" clip-path="url(#clipPath3)" width="20" rx="10" ry="10" height="20" stroke="none"/>
    </g>
    <g text-rendering="geometricPrecision" stroke-miterlimit="1.45" shape-rendering="geometricPrecision" transform="matrix(0.7,0,0,0.7,15.4,15.4) translate(852.3927,351.4648)" stroke-linecap="butt">
      <rect x="0" y="0" clip-path="url(#clipPath3)" fill="none" width="20" rx="10" ry="10" height="20"/>
    </g>
    <g fill="rgb(188,214,241)" text-rendering="geometricPrecision" shape-rendering="geometricPrecision" transform="matrix(0.7,0,0,0.7,15.4,15.4)" stroke="rgb(188,214,241)">
      <path d="M765.5 446.4648 L865.5 446.4648 L865.5 506.4648 L765.5 506.4648 Z" stroke="none" clip-path="url(#clipPath2)"/>
    </g>
    <g text-rendering="geometricPrecision" stroke-miterlimit="1.45" shape-rendering="geometricPrecision" transform="matrix(0.7,0,0,0.7,15.4,15.4)" stroke-linecap="butt">
      <path fill="none" d="M765.5 446.4648 L865.5 446.4648 L865.5 506.4648 L765.5 506.4648 Z" clip-path="url(#clipPath2)"/>
      <text x="797.3164" font-size="14px" y="481.7559" clip-path="url(#clipPath2)" font-family="sans-serif" stroke="none" xml:space="preserve">SHC1</text>
    </g>
    <g fill="rgb(188,214,241)" text-rendering="geometricPrecision" shape-rendering="geometricPrecision" transform="matrix(0.7,0,0,0.7,15.4,15.4)" stroke="rgb(188,214,241)">
      <path d="M78 1786.9531 L178 1786.9531 L178 1846.9531 L78 1846.9531 Z" stroke="none" clip-path="url(#clipPath2)"/>
    </g>
    <g text-rendering="geometricPrecision" stroke-miterlimit="1.45" shape-rendering="geometricPrecision" transform="matrix(0.7,0,0,0.7,15.4,15.4)" stroke-linecap="butt">
      <path fill="none" d="M78 1786.9531 L178 1786.9531 L178 1846.9531 L78 1846.9531 Z" clip-path="url(#clipPath2)"/>
      <text x="105.7524" font-size="14px" y="1822.2441" clip-path="url(#clipPath2)" font-family="sans-serif" stroke="none" xml:space="preserve">SOCS3</text>
    </g>
    <g fill="rgb(188,214,241)" text-rendering="geometricPrecision" shape-rendering="geometricPrecision" transform="matrix(0.7,0,0,0.7,15.4,15.4)" stroke="rgb(188,214,241)">
      <path d="M1391.3334 981.4648 L1491.3334 981.4648 L1491.3334 1041.4648 L1391.3334 1041.4648 Z" stroke="none" clip-path="url(#clipPath2)"/>
    </g>
    <g text-rendering="geometricPrecision" stroke-miterlimit="1.45" shape-rendering="geometricPrecision" transform="matrix(0.7,0,0,0.7,15.4,15.4)" stroke-linecap="butt">
      <path fill="none" d="M1391.3334 981.4648 L1491.3334 981.4648 L1491.3334 1041.4648 L1391.3334 1041.4648 Z" clip-path="url(#clipPath2)"/>
      <text x="1417.452" font-size="14px" y="1016.7559" clip-path="url(#clipPath2)" font-family="sans-serif" stroke="none" xml:space="preserve">IKBKAP</text>
    </g>
    <g fill="rgb(188,214,241)" text-rendering="geometricPrecision" shape-rendering="geometricPrecision" transform="matrix(0.7,0,0,0.7,15.4,15.4)" stroke="rgb(188,214,241)">
      <path d="M1423 1081.4648 L1523 1081.4648 L1523 1141.4648 L1423 1141.4648 Z" stroke="none" clip-path="url(#clipPath2)"/>
    </g>
    <g text-rendering="geometricPrecision" stroke-miterlimit="1.45" shape-rendering="geometricPrecision" transform="matrix(0.7,0,0,0.7,15.4,15.4)" stroke-linecap="butt">
      <path fill="none" d="M1423 1081.4648 L1523 1081.4648 L1523 1141.4648 L1423 1141.4648 Z" clip-path="url(#clipPath2)"/>
      <text x="1440.4233" font-size="14px" y="1116.7559" clip-path="url(#clipPath2)" font-family="sans-serif" stroke="none" xml:space="preserve">MAP3K14</text>
    </g>
    <g fill="rgb(188,214,241)" text-rendering="geometricPrecision" shape-rendering="geometricPrecision" transform="matrix(0.7,0,0,0.7,15.4,15.4)" stroke="rgb(188,214,241)">
      <path d="M1359.6666 886.4648 L1459.6666 886.4648 L1459.6666 946.4648 L1359.6666 946.4648 Z" stroke="none" clip-path="url(#clipPath2)"/>
    </g>
    <g text-rendering="geometricPrecision" stroke-miterlimit="1.45" shape-rendering="geometricPrecision" transform="matrix(0.7,0,0,0.7,15.4,15.4)" stroke-linecap="butt">
      <path fill="none" d="M1359.6666 886.4648 L1459.6666 886.4648 L1459.6666 946.4648 L1359.6666 946.4648 Z" clip-path="url(#clipPath2)"/>
      <text x="1368.8356" font-size="14px" y="921.7559" clip-path="url(#clipPath2)" font-family="sans-serif" stroke="none" xml:space="preserve">CHUK;IKBKB</text>
    </g>
    <g fill="rgb(188,214,241)" text-rendering="geometricPrecision" shape-rendering="geometricPrecision" transform="matrix(0.7,0,0,0.7,15.4,15.4)" stroke="rgb(188,214,241)">
      <path d="M950.5 551.4648 L1050.5 551.4648 L1050.5 611.4648 L950.5 611.4648 Z" stroke="none" clip-path="url(#clipPath2)"/>
    </g>
    <g text-rendering="geometricPrecision" stroke-miterlimit="1.45" shape-rendering="geometricPrecision" transform="matrix(0.7,0,0,0.7,15.4,15.4)" stroke-linecap="butt">
      <path fill="none" d="M950.5 551.4648 L1050.5 551.4648 L1050.5 611.4648 L950.5 611.4648 Z" clip-path="url(#clipPath2)"/>
      <text x="957.748" font-size="14px" y="586.7559" clip-path="url(#clipPath2)" font-family="sans-serif" stroke="none" xml:space="preserve">IRAK1;IRAK2</text>
    </g>
    <g fill="rgb(188,214,241)" text-rendering="geometricPrecision" shape-rendering="geometricPrecision" transform="matrix(0.7,0,0,0.7,15.4,15.4)" stroke="rgb(188,214,241)">
      <path d="M990.5 636.4648 L1090.5 636.4648 L1090.5 696.4648 L990.5 696.4648 Z" stroke="none" clip-path="url(#clipPath2)"/>
    </g>
    <g text-rendering="geometricPrecision" stroke-miterlimit="1.45" shape-rendering="geometricPrecision" transform="matrix(0.7,0,0,0.7,15.4,15.4)" stroke-linecap="butt">
      <path fill="none" d="M990.5 636.4648 L1090.5 636.4648 L1090.5 696.4648 L990.5 696.4648 Z" clip-path="url(#clipPath2)"/>
      <text x="1018.6387" font-size="14px" y="671.7559" clip-path="url(#clipPath2)" font-family="sans-serif" stroke="none" xml:space="preserve">TRAF6</text>
    </g>
    <g fill="rgb(188,214,241)" text-rendering="geometricPrecision" shape-rendering="geometricPrecision" transform="matrix(0.7,0,0,0.7,15.4,15.4)" stroke="rgb(188,214,241)">
      <path d="M965.5 801.4648 L1065.5 801.4648 L1065.5 861.4648 L965.5 861.4648 Z" stroke="none" clip-path="url(#clipPath2)"/>
    </g>
    <g text-rendering="geometricPrecision" stroke-miterlimit="1.45" shape-rendering="geometricPrecision" transform="matrix(0.7,0,0,0.7,15.4,15.4)" stroke-linecap="butt">
      <path fill="none" d="M965.5 801.4648 L1065.5 801.4648 L1065.5 861.4648 L965.5 861.4648 Z" clip-path="url(#clipPath2)"/>
      <text x="987.3496" font-size="14px" y="836.7559" clip-path="url(#clipPath2)" font-family="sans-serif" stroke="none" xml:space="preserve">MAP3K1</text>
    </g>
    <g fill="rgb(188,214,241)" text-rendering="geometricPrecision" shape-rendering="geometricPrecision" transform="matrix(0.7,0,0,0.7,15.4,15.4)" stroke="rgb(188,214,241)">
      <path d="M965.5 721.4648 L1065.5 721.4648 L1065.5 781.4648 L965.5 781.4648 Z" stroke="none" clip-path="url(#clipPath2)"/>
    </g>
    <g text-rendering="geometricPrecision" stroke-miterlimit="1.45" shape-rendering="geometricPrecision" transform="matrix(0.7,0,0,0.7,15.4,15.4)" stroke-linecap="butt">
      <path fill="none" d="M965.5 721.4648 L1065.5 721.4648 L1065.5 781.4648 L965.5 781.4648 Z" clip-path="url(#clipPath2)"/>
      <text x="996.6499" font-size="14px" y="756.7559" clip-path="url(#clipPath2)" font-family="sans-serif" stroke="none" xml:space="preserve">ECSIT</text>
    </g>
    <g fill="rgb(188,214,241)" text-rendering="geometricPrecision" shape-rendering="geometricPrecision" transform="matrix(0.7,0,0,0.7,15.4,15.4)" stroke="rgb(188,214,241)">
      <path d="M615.5 361.4648 L715.5 361.4648 L715.5 421.4648 L615.5 421.4648 Z" stroke="none" clip-path="url(#clipPath2)"/>
    </g>
    <g text-rendering="geometricPrecision" stroke-miterlimit="1.45" shape-rendering="geometricPrecision" transform="matrix(0.7,0,0,0.7,15.4,15.4)" stroke-linecap="butt">
      <path fill="none" d="M615.5 361.4648 L715.5 361.4648 L715.5 421.4648 L615.5 421.4648 Z" clip-path="url(#clipPath2)"/>
      <text x="643.2524" font-size="14px" y="396.7559" clip-path="url(#clipPath2)" font-family="sans-serif" stroke="none" xml:space="preserve">SOCS1</text>
    </g>
    <g text-rendering="geometricPrecision" stroke-miterlimit="1.45" shape-rendering="geometricPrecision" transform="matrix(0.7,0,0,0.7,15.4,15.4)" stroke-linecap="butt">
      <path fill="none" d="M518 1151.4648 L518 1156.4648 L517.375 1158.6523 L515.5 1160.2148 L508 1161.4648 L205.8564 1161.4648 L201.4814 1162.0898 L198.3564 1163.9648 L196.4814 1167.0898 L195.8564 1171.4648 L195.8564 1486.9116" clip-path="url(#clipPath2)"/>
      <path fill="white" d="M195.8564 1501.9116 L201.8564 1485.9116 L189.8564 1485.9116 Z" clip-path="url(#clipPath2)" stroke="none"/>
      <path fill="none" d="M195.8564 1501.9116 L201.8564 1485.9116 L189.8564 1485.9116 Z" clip-path="url(#clipPath2)"/>
      <path fill="none" d="M790.5 696.4648 L790.5 701.4648 L790.9688 703.6523 L792.375 705.2148 L798 706.4648 L798 706.4648 L801.2812 706.9327 L803.625 708.3362 L805.0312 710.6754 L805.5 713.9502 L805.5 721.4355" clip-path="url(#clipPath2)"/>
      <path fill="white" d="M805.5 721.4355 L811.5 705.4355 L799.5 705.4355 Z" clip-path="url(#clipPath2)" stroke="none"/>
      <path fill="none" d="M805.5 721.4355 L811.5 705.4355 L799.5 705.4355 Z" clip-path="url(#clipPath2)"/>
      <path fill="none" d="M830.5 781.4648 L830.5 786.4258" clip-path="url(#clipPath2)"/>
      <path fill="white" d="M830.5 801.4258 L836.5 785.4258 L824.5 785.4258 Z" clip-path="url(#clipPath2)" stroke="none"/>
      <path fill="none" d="M830.5 801.4258 L836.5 785.4258 L824.5 785.4258 Z" clip-path="url(#clipPath2)"/>
      <path fill="none" d="M830.5 861.4648 L830.5 866.4648 L831.125 868.6523 L833 870.2148 L840.5 871.4648 L892.4841 871.4648 L896.8591 871.9327 L899.9841 873.3362 L901.8591 875.6754 L902.4841 878.9502 L902.4841 886.4355" clip-path="url(#clipPath2)"/>
      <path fill="white" d="M902.4841 886.4355 L908.4841 870.4355 L896.4841 870.4355 Z" clip-path="url(#clipPath2)" stroke="none"/>
      <path fill="none" d="M902.4841 886.4355 L908.4841 870.4355 L896.4841 870.4355 Z" clip-path="url(#clipPath2)"/>
      <path fill="none" d="M710.5 280.9766 L710.5 295.9766 L709.875 300.3516 L708 303.4766 L704.875 305.3516 L700.5 305.9766 L610.5 305.9766 L606.125 306.6016 L603 308.4766 L601.125 311.6016 L600.5 315.9766 L600.5 421.4648 L600.9688 425.8398 L602.375 428.9648 L604.7188 430.8398 L608 431.4648 L608 431.4648 L611.2812 431.9327 L613.625 433.3362 L615.0312 435.6754 L615.5 438.9502 L615.5 446.4355" clip-path="url(#clipPath2)"/>
      <path fill="white" d="M615.5 446.4355 L621.5 430.4355 L609.5 430.4355 Z" clip-path="url(#clipPath2)" stroke="none"/>
      <path fill="none" d="M615.5 446.4355 L621.5 430.4355 L609.5 430.4355 Z" clip-path="url(#clipPath2)"/>
      <path fill="none" d="M653 506.4648 L653 526.4648 L653.625 530.8398 L655.5 533.9648 L658.625 535.8398 L663 536.4648 L690.5 536.4648 L694.875 536.9327 L698 538.3362 L699.875 540.6754 L700.5 543.9502 L700.5 551.4355" clip-path="url(#clipPath2)"/>
      <path fill="white" d="M700.5 551.4355 L706.5 535.4355 L694.5 535.4355 Z" clip-path="url(#clipPath2)" stroke="none"/>
      <path fill="none" d="M700.5 551.4355 L706.5 535.4355 L694.5 535.4355 Z" clip-path="url(#clipPath2)"/>
      <path fill="none" d="M750.5 280.9766 L750.5 536.4318" clip-path="url(#clipPath2)"/>
      <path fill="white" d="M750.5 551.4318 L756.5 535.4318 L744.5 535.4318 Z" clip-path="url(#clipPath2)" stroke="none"/>
      <path fill="none" d="M750.5 551.4318 L756.5 535.4318 L744.5 535.4318 Z" clip-path="url(#clipPath2)"/>
      <path fill="none" d="M738 611.4648 L738 616.4648 L738.625 618.6523 L740.5 620.2148 L748 621.4648 L755.5 621.4648 L759.875 621.9327 L763 623.3362 L764.875 625.6754 L765.5 628.9502 L765.5 636.4355" clip-path="url(#clipPath2)"/>
      <path fill="white" d="M765.5 636.4355 L771.5 620.4355 L759.5 620.4355 Z" clip-path="url(#clipPath2)" stroke="none"/>
      <path fill="none" d="M765.5 636.4355 L771.5 620.4355 L759.5 620.4355 Z" clip-path="url(#clipPath2)"/>
      <path fill="none" d="M725.5 551.416 L725.5 536.4648 L724.875 532.0898 L723 528.9648 L719.875 527.0898 L715.5 526.4648 L688 526.4648 L680.5 525.8398 L678.625 525.0586 L678 523.9648 L678 521.4648" clip-path="url(#clipPath2)"/>
      <path fill="white" d="M678 506.4648 L672 522.4648 L684 522.4648 Z" clip-path="url(#clipPath2)" stroke="none"/>
      <path fill="none" d="M678 506.4648 L672 522.4648 L684 522.4648 Z" clip-path="url(#clipPath2)"/>
      <path fill="none" d="M113 421.4648 L113 426.4648 L112.375 428.6523 L110.5 430.2148 L103 431.4648 L73 431.4648 L68.625 432.0898 L65.5 433.9648 L63.625 437.0898 L63 441.4648 L63 1896.9531 L63.625 1901.3281 L65.5 1904.4531 L68.625 1906.3281 L73 1906.9531 L759.6667 1906.9531 L767.1667 1908.197 L769.0417 1909.752 L769.6667 1911.9287 L769.6667 1916.9043" clip-path="url(#clipPath2)"/>
      <path fill="white" d="M769.6667 1931.9043 L775.6667 1915.9043 L763.6667 1915.9043 Z" clip-path="url(#clipPath2)" stroke="none"/>
      <path fill="none" d="M769.6667 1931.9043 L775.6667 1915.9043 L763.6667 1915.9043 Z" clip-path="url(#clipPath2)"/>
      <path fill="none" d="M927.4841 946.4648 L927.4841 966.4307" clip-path="url(#clipPath2)"/>
      <path fill="white" d="M927.4841 981.4307 L933.4841 965.4307 L921.4841 965.4307 Z" clip-path="url(#clipPath2)" stroke="none"/>
      <path fill="none" d="M927.4841 981.4307 L933.4841 965.4307 L921.4841 965.4307 Z" clip-path="url(#clipPath2)"/>
      <path fill="none" d="M927.4841 1041.4648 L927.4841 1046.4648 L926.8591 1048.6523 L924.9841 1050.2148 L917.4841 1051.4648 L763 1051.4648 L758.625 1051.9326 L755.5 1053.3362 L753.625 1055.6753 L753 1058.9502 L753 1066.4355" clip-path="url(#clipPath2)"/>
      <path fill="white" d="M753 1081.4355 L759 1065.4355 L747 1065.4355 Z" clip-path="url(#clipPath2)" stroke="none"/>
      <path fill="none" d="M753 1081.4355 L759 1065.4355 L747 1065.4355 Z" clip-path="url(#clipPath2)"/>
      <path fill="none" d="M842.2528 421.4648 L842.2528 426.4648 L841.3764 431.4648 L841.3764 431.4648 L840.5 438.9502 L840.5 446.4355" clip-path="url(#clipPath2)"/>
      <path fill="white" d="M840.5 446.4355 L846.5 430.4355 L834.5 430.4355 Z" clip-path="url(#clipPath2)" stroke="none"/>
      <path fill="none" d="M840.5 446.4355 L846.5 430.4355 L834.5 430.4355 Z" clip-path="url(#clipPath2)"/>
      <path fill="none" d="M770.5 280.9766 L770.5 421.4648 L771.125 425.8398 L773 428.9648 L776.125 430.8398 L780.5 431.4648 L780.5 431.4648 L784.875 431.9327 L788 433.3362 L789.875 435.6754 L790.5 438.9502 L790.5 446.4355" clip-path="url(#clipPath2)"/>
      <path fill="white" d="M790.5 446.4355 L796.5 430.4355 L784.5 430.4355 Z" clip-path="url(#clipPath2)" stroke="none"/>
      <path fill="none" d="M790.5 446.4355 L796.5 430.4355 L784.5 430.4355 Z" clip-path="url(#clipPath2)"/>
      <path fill="none" d="M815.5 506.4648 L815.5 621.4331" clip-path="url(#clipPath2)"/>
      <path fill="white" d="M815.5 636.4331 L821.5 620.4331 L809.5 620.4331 Z" clip-path="url(#clipPath2)" stroke="none"/>
      <path fill="none" d="M815.5 636.4331 L821.5 620.4331 L809.5 620.4331 Z" clip-path="url(#clipPath2)"/>
      <path fill="none" d="M782.1667 506.4648 L782.1667 511.4648 L781.3334 515.2148 L778.8334 516.4648 L778.8334 516.4648 L777.375 517.0887 L776.3334 518.9606 L775.5 526.4478 L775.5 536.4307" clip-path="url(#clipPath2)"/>
      <path fill="white" d="M775.5 551.4307 L781.5 535.4307 L769.5 535.4307 Z" clip-path="url(#clipPath2)" stroke="none"/>
      <path fill="none" d="M775.5 551.4307 L781.5 535.4307 L769.5 535.4307 Z" clip-path="url(#clipPath2)"/>
      <path fill="none" d="M848.8333 506.4648 L848.8333 511.4648 L849.6666 515.2148 L852.1666 516.4648 L852.1666 516.4648 L853.625 517.0898 L854.6666 518.9648 L855.5 526.4648 L855.5 706.4398" clip-path="url(#clipPath2)"/>
      <path fill="white" d="M855.5 721.4398 L861.5 705.4398 L849.5 705.4398 Z" clip-path="url(#clipPath2)" stroke="none"/>
      <path fill="none" d="M855.5 721.4398 L861.5 705.4398 L849.5 705.4398 Z" clip-path="url(#clipPath2)"/>
      <path fill="none" d="M103 1786.9238 L103 1736.9531 L102.375 1732.5781 L100.5 1729.4531 L97.375 1727.5781 L93 1726.9531 L93 1726.9531 L88.625 1726.3281 L85.5 1724.4531 L83.625 1721.3281 L83 1716.9531 L83 531.4648 L83.625 527.0898 L85.5 523.9648 L88.625 522.0898 L93 521.4648 L593 521.4648 L597.375 520.9961 L600.5 519.5898 L602.375 517.2461 L603 513.9648 L603 506.4648" clip-path="url(#clipPath2)"/>
      <path fill="white" d="M603 506.4648 L597 522.4648 L609 522.4648 Z" clip-path="url(#clipPath2)" stroke="none"/>
      <path fill="none" d="M603 506.4648 L597 522.4648 L609 522.4648 Z" clip-path="url(#clipPath2)"/>
      <path fill="none" d="M1441.3334 1041.4648 L1441.3334 1046.4648 L1441.9584 1048.6523 L1443.8334 1050.2148 L1451.3334 1051.4648 L1463 1051.4648 L1467.375 1051.9326 L1470.5 1053.3362 L1472.375 1055.6753 L1473 1058.9502 L1473 1066.4355" clip-path="url(#clipPath2)"/>
      <path fill="white" d="M1473 1081.4355 L1479 1065.4355 L1467 1065.4355 Z" clip-path="url(#clipPath2)" stroke="none"/>
      <path fill="none" d="M1473 1081.4355 L1479 1065.4355 L1467 1065.4355 Z" clip-path="url(#clipPath2)"/>
      <path fill="none" d="M1439.6666 1081.4258 L1439.6666 1071.4453 L1439.0416 1067.0789 L1437.1666 1063.96 L1434.0416 1062.0886 L1429.6666 1061.4648 L1386.3334 1061.4648 L1381.9584 1060.8398 L1378.8334 1058.9648 L1376.9584 1055.8398 L1376.3334 1051.4648 L1376.3334 961.4648" clip-path="url(#clipPath2)"/>
      <path fill="white" d="M1376.3334 946.4648 L1370.3334 962.4648 L1382.3334 962.4648 Z" clip-path="url(#clipPath2)" stroke="none"/>
      <path fill="none" d="M1376.3334 946.4648 L1370.3334 962.4648 L1382.3334 962.4648 Z" clip-path="url(#clipPath2)"/>
      <path fill="none" d="M1409.6666 946.4648 L1409.6666 956.4648 L1410.2916 960.8398 L1412.1666 963.9648 L1415.2916 965.8398 L1419.6666 966.4648 L1431.3334 966.4648 L1435.7084 966.9327 L1438.8334 968.3362 L1440.7084 970.6754 L1441.3334 973.9502 L1441.3334 981.4355" clip-path="url(#clipPath2)"/>
      <path fill="white" d="M1441.3334 981.4355 L1447.3334 965.4355 L1435.3334 965.4355 Z" clip-path="url(#clipPath2)" stroke="none"/>
      <path fill="none" d="M1441.3334 981.4355 L1447.3334 965.4355 L1435.3334 965.4355 Z" clip-path="url(#clipPath2)"/>
      <path fill="none" d="M1000.5 280.9766 L1000.5 536.4318" clip-path="url(#clipPath2)"/>
      <path fill="white" d="M1000.5 551.4318 L1006.5 535.4318 L994.5 535.4318 Z" clip-path="url(#clipPath2)" stroke="none"/>
      <path fill="none" d="M1000.5 551.4318 L1006.5 535.4318 L994.5 535.4318 Z" clip-path="url(#clipPath2)"/>
      <path fill="none" d="M1050.5 280.9766 L1050.5 285.9766 L1050.9688 288.1641 L1052.375 289.7266 L1058 290.9766 L1058 290.9766 L1061.2812 291.6016 L1063.625 293.4766 L1065.0312 296.6016 L1065.5 300.9766 L1065.5 621.4227" clip-path="url(#clipPath2)"/>
      <path fill="white" d="M1065.5 636.4227 L1071.5 620.4227 L1059.5 620.4227 Z" clip-path="url(#clipPath2)" stroke="none"/>
      <path fill="none" d="M1065.5 636.4227 L1071.5 620.4227 L1059.5 620.4227 Z" clip-path="url(#clipPath2)"/>
      <path fill="none" d="M1000.5 611.4648 L1000.5 616.4648 L1000.9688 618.6523 L1002.375 620.2148 L1008 621.4648 L1008 621.4648 L1011.2812 621.9327 L1013.625 623.3362 L1015.0312 625.6754 L1015.5 628.9502 L1015.5 636.4355" clip-path="url(#clipPath2)"/>
      <path fill="white" d="M1015.5 636.4355 L1021.5 620.4355 L1009.5 620.4355 Z" clip-path="url(#clipPath2)" stroke="none"/>
      <path fill="none" d="M1015.5 636.4355 L1021.5 620.4355 L1009.5 620.4355 Z" clip-path="url(#clipPath2)"/>
      <path fill="none" d="M1065.5 696.4648 L1065.5 701.4648 L1066.125 703.6523 L1068 705.2148 L1075.5 706.4648 L1496.3334 706.4648 L1500.7084 707.0898 L1503.8334 708.9648 L1505.7084 712.0898 L1506.3334 716.4648 L1506.3334 1066.4191" clip-path="url(#clipPath2)"/>
      <path fill="white" d="M1506.3334 1081.4191 L1512.3334 1065.4191 L1500.3334 1065.4191 Z" clip-path="url(#clipPath2)" stroke="none"/>
      <path fill="none" d="M1506.3334 1081.4191 L1512.3334 1065.4191 L1500.3334 1065.4191 Z" clip-path="url(#clipPath2)"/>
      <path fill="none" d="M1053 861.4648 L1053 866.4648 L1053.625 868.6523 L1055.5 870.2148 L1063 871.4648 L1399.6666 871.4648 L1404.0416 871.9327 L1407.1666 873.3362 L1409.0416 875.6754 L1409.6666 878.9502 L1409.6666 886.4355" clip-path="url(#clipPath2)"/>
      <path fill="white" d="M1409.6666 886.4355 L1415.6666 870.4355 L1403.6666 870.4355 Z" clip-path="url(#clipPath2)" stroke="none"/>
      <path fill="none" d="M1409.6666 886.4355 L1415.6666 870.4355 L1403.6666 870.4355 Z" clip-path="url(#clipPath2)"/>
      <path fill="none" d="M978 861.4648 L978 866.4648 L977.375 868.6523 L975.5 870.2148 L968 871.4648 L962.4841 871.4648 L958.1091 871.9327 L954.9841 873.3362 L953.1091 875.6754 L952.4841 878.9502 L952.4841 886.4355" clip-path="url(#clipPath2)"/>
      <path fill="white" d="M952.4841 886.4355 L958.4841 870.4355 L946.4841 870.4355 Z" clip-path="url(#clipPath2)" stroke="none"/>
      <path fill="none" d="M952.4841 886.4355 L958.4841 870.4355 L946.4841 870.4355 Z" clip-path="url(#clipPath2)"/>
      <path fill="none" d="M1003 861.4648 L1003 866.4648 L1001.6855 870.2148 L997.7421 871.4648 L997.7421 871.4648 L995.4417 872.0898 L993.7986 873.9648 L992.4841 881.4648 L992.4841 946.4648 L992.0154 950.8398 L990.6091 953.9648 L988.2654 955.8398 L984.9841 956.4648 L984.9841 956.4648 L979.3591 957.7087 L977.9529 959.2636 L977.4841 961.4404 L977.4841 966.416" clip-path="url(#clipPath2)"/>
      <path fill="white" d="M977.4841 981.416 L983.4841 965.416 L971.4841 965.416 Z" clip-path="url(#clipPath2)" stroke="none"/>
      <path fill="none" d="M977.4841 981.416 L983.4841 965.416 L971.4841 965.416 Z" clip-path="url(#clipPath2)"/>
      <path fill="none" d="M1015.5 696.4648 L1015.5 706.416" clip-path="url(#clipPath2)"/>
      <path fill="white" d="M1015.5 721.416 L1021.5 705.416 L1009.5 705.416 Z" clip-path="url(#clipPath2)" stroke="none"/>
      <path fill="none" d="M1015.5 721.416 L1021.5 705.416 L1009.5 705.416 Z" clip-path="url(#clipPath2)"/>
      <path fill="none" d="M1015.5 781.4648 L1015.5 786.4258" clip-path="url(#clipPath2)"/>
      <path fill="white" d="M1015.5 801.4258 L1021.5 785.4258 L1009.5 785.4258 Z" clip-path="url(#clipPath2)" stroke="none"/>
      <path fill="none" d="M1015.5 801.4258 L1021.5 785.4258 L1009.5 785.4258 Z" clip-path="url(#clipPath2)"/>
      <path fill="none" d="M665.5 421.4648 L665.5 431.416" clip-path="url(#clipPath2)"/>
      <path fill="white" d="M665.5 446.416 L671.5 430.416 L659.5 430.416 Z" clip-path="url(#clipPath2)" stroke="none"/>
      <path fill="none" d="M665.5 446.416 L671.5 430.416 L659.5 430.416 Z" clip-path="url(#clipPath2)"/>
    </g>
    <g transform="matrix(0.7,0,0,0.7,15.4,15.4)" fill-opacity="0.5098" fill="rgb(161,156,142)" text-rendering="geometricPrecision" shape-rendering="geometricPrecision" stroke="rgb(161,156,142)" stroke-opacity="0.5098">
      <rect x="277" y="1191.4648" clip-path="url(#clipPath2)" width="1317" rx="4" ry="4" height="570.4883" stroke="none"/>
    </g>
    <g font-size="14px" stroke-linecap="butt" transform="matrix(0.7,0,0,0.7,15.4,15.4)" text-rendering="geometricPrecision" font-family="sans-serif" shape-rendering="geometricPrecision" stroke-miterlimit="1.45">
      <text x="871.1807" xml:space="preserve" y="1207" clip-path="url(#clipPath2)" stroke="none">Neutrophil:nucleus</text>
      <rect x="277" y="1191.4648" clip-path="url(#clipPath2)" fill="none" width="1317" rx="4" ry="4" height="570.4883" stroke-width="3"/>
    </g>
    <g fill="rgb(188,214,241)" text-rendering="geometricPrecision" shape-rendering="geometricPrecision" transform="matrix(0.7,0,0,0.7,15.4,15.4)" stroke="rgb(188,214,241)">
      <path d="M293 1226.9531 L393 1226.9531 L393 1286.9531 L293 1286.9531 Z" stroke="none" clip-path="url(#clipPath2)"/>
    </g>
    <g text-rendering="geometricPrecision" stroke-miterlimit="1.45" shape-rendering="geometricPrecision" transform="matrix(0.7,0,0,0.7,15.4,15.4)" stroke-linecap="butt">
      <path fill="none" d="M293 1226.9531 L393 1226.9531 L393 1286.9531 L293 1286.9531 Z" clip-path="url(#clipPath2)"/>
      <text x="319.7065" font-size="14px" y="1262.2441" clip-path="url(#clipPath2)" font-family="sans-serif" stroke="none" xml:space="preserve">NR3C1</text>
    </g>
    <g fill="rgb(188,214,241)" text-rendering="geometricPrecision" shape-rendering="geometricPrecision" transform="matrix(0.7,0,0,0.7,15.4,15.4)" stroke="rgb(188,214,241)">
      <path d="M903 1416.9531 L1003 1416.9531 L1003 1476.9531 L903 1476.9531 Z" stroke="none" clip-path="url(#clipPath2)"/>
    </g>
    <g text-rendering="geometricPrecision" stroke-miterlimit="1.45" shape-rendering="geometricPrecision" transform="matrix(0.7,0,0,0.7,15.4,15.4)" stroke-linecap="butt">
      <path fill="none" d="M903 1416.9531 L1003 1416.9531 L1003 1476.9531 L903 1476.9531 Z" clip-path="url(#clipPath2)"/>
      <text x="932.4409" font-size="14px" y="1452.2441" clip-path="url(#clipPath2)" font-family="sans-serif" stroke="none" xml:space="preserve">CEBPB</text>
    </g>
    <g fill="rgb(188,214,241)" text-rendering="geometricPrecision" shape-rendering="geometricPrecision" transform="matrix(0.7,0,0,0.7,15.4,15.4)" stroke="rgb(188,214,241)">
      <path d="M688 1501.9531 L788 1501.9531 L788 1561.9531 L688 1561.9531 Z" stroke="none" clip-path="url(#clipPath2)"/>
    </g>
    <g text-rendering="geometricPrecision" stroke-miterlimit="1.45" shape-rendering="geometricPrecision" transform="matrix(0.7,0,0,0.7,15.4,15.4)" stroke-linecap="butt">
      <path fill="none" d="M688 1501.9531 L788 1501.9531 L788 1561.9531 L688 1561.9531 Z" clip-path="url(#clipPath2)"/>
      <text x="725.8013" font-size="14px" y="1537.2441" clip-path="url(#clipPath2)" font-family="sans-serif" stroke="none" xml:space="preserve">JUN</text>
    </g>
    <g fill="rgb(188,214,241)" text-rendering="geometricPrecision" shape-rendering="geometricPrecision" transform="matrix(0.7,0,0,0.7,15.4,15.4)" stroke="rgb(188,214,241)">
      <path d="M1328 1321.9531 L1428 1321.9531 L1428 1381.9531 L1328 1381.9531 Z" stroke="none" clip-path="url(#clipPath2)"/>
    </g>
    <g text-rendering="geometricPrecision" stroke-miterlimit="1.45" shape-rendering="geometricPrecision" transform="matrix(0.7,0,0,0.7,15.4,15.4)" stroke-linecap="butt">
      <path fill="none" d="M1328 1321.9531 L1428 1321.9531 L1428 1381.9531 L1328 1381.9531 Z" clip-path="url(#clipPath2)"/>
      <text x="1329.6768" font-size="14px" y="1340.7559" clip-path="url(#clipPath2)" font-family="sans-serif" stroke="none" xml:space="preserve">NFKB1;NFKB2;</text>
      <text x="1344.8354" font-size="14px" y="1357.2441" clip-path="url(#clipPath2)" font-family="sans-serif" stroke="none" xml:space="preserve">REL;RELA;</text>
      <text x="1362.021" font-size="14px" y="1373.7324" clip-path="url(#clipPath2)" font-family="sans-serif" stroke="none" xml:space="preserve">RELB</text>
    </g>
    <g fill="rgb(188,214,241)" text-rendering="geometricPrecision" shape-rendering="geometricPrecision" transform="matrix(0.7,0,0,0.7,15.4,15.4)" stroke="rgb(188,214,241)">
      <path d="M753 1686.9531 L853 1686.9531 L853 1746.9531 L753 1746.9531 Z" stroke="none" clip-path="url(#clipPath2)"/>
    </g>
    <g text-rendering="geometricPrecision" stroke-miterlimit="1.45" shape-rendering="geometricPrecision" transform="matrix(0.7,0,0,0.7,15.4,15.4)" stroke-linecap="butt">
      <path fill="none" d="M753 1686.9531 L853 1686.9531 L853 1746.9531 L753 1746.9531 Z" clip-path="url(#clipPath2)"/>
      <text x="790.0391" font-size="14px" y="1722.2441" clip-path="url(#clipPath2)" font-family="sans-serif" stroke="none" xml:space="preserve">FOS</text>
    </g>
    <g fill="rgb(188,214,241)" text-rendering="geometricPrecision" shape-rendering="geometricPrecision" transform="matrix(0.7,0,0,0.7,15.4,15.4)" stroke="rgb(188,214,241)">
      <path d="M1098 1226.9531 L1198 1226.9531 L1198 1286.9531 L1098 1286.9531 Z" stroke="none" clip-path="url(#clipPath2)"/>
    </g>
    <g text-rendering="geometricPrecision" stroke-miterlimit="1.45" shape-rendering="geometricPrecision" transform="matrix(0.7,0,0,0.7,15.4,15.4)" stroke-linecap="butt">
      <path fill="none" d="M1098 1226.9531 L1198 1226.9531 L1198 1286.9531 L1098 1286.9531 Z" clip-path="url(#clipPath2)"/>
      <text x="1126.2241" font-size="14px" y="1262.2441" clip-path="url(#clipPath2)" font-family="sans-serif" stroke="none" xml:space="preserve">CEBPD</text>
    </g>
    <g fill="rgb(188,214,241)" text-rendering="geometricPrecision" shape-rendering="geometricPrecision" transform="matrix(0.7,0,0,0.7,15.4,15.4)" stroke="rgb(188,214,241)">
      <path d="M1478 1226.9531 L1578 1226.9531 L1578 1286.9531 L1478 1286.9531 Z" stroke="none" clip-path="url(#clipPath2)"/>
    </g>
    <g text-rendering="geometricPrecision" stroke-miterlimit="1.45" shape-rendering="geometricPrecision" transform="matrix(0.7,0,0,0.7,15.4,15.4)" stroke-linecap="butt">
      <path fill="none" d="M1478 1226.9531 L1578 1226.9531 L1578 1286.9531 L1478 1286.9531 Z" clip-path="url(#clipPath2)"/>
      <text x="1506.4839" font-size="14px" y="1262.2441" clip-path="url(#clipPath2)" font-family="sans-serif" stroke="none" xml:space="preserve">CREB1</text>
    </g>
    <g fill="rgb(188,214,241)" text-rendering="geometricPrecision" shape-rendering="geometricPrecision" transform="matrix(0.7,0,0,0.7,15.4,15.4)" stroke="rgb(188,214,241)">
      <path d="M818 1226.9531 L918 1226.9531 L918 1286.9531 L818 1286.9531 Z" stroke="none" clip-path="url(#clipPath2)"/>
    </g>
    <g text-rendering="geometricPrecision" stroke-miterlimit="1.45" shape-rendering="geometricPrecision" transform="matrix(0.7,0,0,0.7,15.4,15.4)" stroke-linecap="butt">
      <path fill="none" d="M818 1226.9531 L918 1226.9531 L918 1286.9531 L818 1286.9531 Z" clip-path="url(#clipPath2)"/>
      <text x="851.4775" font-size="14px" y="1262.2441" clip-path="url(#clipPath2)" font-family="sans-serif" stroke="none" xml:space="preserve">ELK1</text>
    </g>
    <g fill="rgb(188,214,241)" text-rendering="geometricPrecision" shape-rendering="geometricPrecision" transform="matrix(0.7,0,0,0.7,15.4,15.4)" stroke="rgb(188,214,241)">
      <path d="M818 1321.9531 L918 1321.9531 L918 1381.9531 L818 1381.9531 Z" stroke="none" clip-path="url(#clipPath2)"/>
    </g>
    <g text-rendering="geometricPrecision" stroke-miterlimit="1.45" shape-rendering="geometricPrecision" transform="matrix(0.7,0,0,0.7,15.4,15.4)" stroke-linecap="butt">
      <path fill="none" d="M818 1321.9531 L918 1321.9531 L918 1381.9531 L818 1381.9531 Z" clip-path="url(#clipPath2)"/>
      <text x="856.0508" font-size="14px" y="1357.2441" clip-path="url(#clipPath2)" font-family="sans-serif" stroke="none" xml:space="preserve">SRF</text>
    </g>
    <g fill="rgb(188,214,241)" text-rendering="geometricPrecision" shape-rendering="geometricPrecision" transform="matrix(0.7,0,0,0.7,15.4,15.4)" stroke="rgb(188,214,241)">
      <path d="M623 1586.9531 L723 1586.9531 L723 1646.9531 L623 1646.9531 Z" stroke="none" clip-path="url(#clipPath2)"/>
    </g>
    <g text-rendering="geometricPrecision" stroke-miterlimit="1.45" shape-rendering="geometricPrecision" transform="matrix(0.7,0,0,0.7,15.4,15.4)" stroke-linecap="butt">
      <path fill="none" d="M623 1586.9531 L723 1586.9531 L723 1646.9531 L623 1646.9531 Z" clip-path="url(#clipPath2)"/>
      <text x="651.1216" font-size="14px" y="1622.2441" clip-path="url(#clipPath2)" font-family="sans-serif" stroke="none" xml:space="preserve">STAT3</text>
    </g>
    <g fill="rgb(188,214,241)" text-rendering="geometricPrecision" shape-rendering="geometricPrecision" transform="matrix(0.7,0,0,0.7,15.4,15.4)" stroke="rgb(188,214,241)">
      <path d="M968 1321.9531 L1068 1321.9531 L1068 1381.9531 L968 1381.9531 Z" stroke="none" clip-path="url(#clipPath2)"/>
    </g>
    <g text-rendering="geometricPrecision" stroke-miterlimit="1.45" shape-rendering="geometricPrecision" transform="matrix(0.7,0,0,0.7,15.4,15.4)" stroke-linecap="butt">
      <path fill="none" d="M968 1321.9531 L1068 1321.9531 L1068 1381.9531 L968 1381.9531 Z" clip-path="url(#clipPath2)"/>
      <text x="992.061" font-size="14px" y="1349" clip-path="url(#clipPath2)" font-family="sans-serif" stroke="none" xml:space="preserve">MAPK1;</text>
      <text x="994.2759" font-size="14px" y="1365.4883" clip-path="url(#clipPath2)" font-family="sans-serif" stroke="none" xml:space="preserve">MAPK3</text>
    </g>
    <g fill="rgb(188,214,241)" text-rendering="geometricPrecision" shape-rendering="geometricPrecision" transform="matrix(0.7,0,0,0.7,15.4,15.4)" stroke="rgb(188,214,241)">
      <path d="M1328 1226.9531 L1428 1226.9531 L1428 1286.9531 L1328 1286.9531 Z" stroke="none" clip-path="url(#clipPath2)"/>
    </g>
    <g text-rendering="geometricPrecision" stroke-miterlimit="1.45" shape-rendering="geometricPrecision" transform="matrix(0.7,0,0,0.7,15.4,15.4)" stroke-linecap="butt">
      <path fill="none" d="M1328 1226.9531 L1428 1226.9531 L1428 1286.9531 L1328 1286.9531 Z" clip-path="url(#clipPath2)"/>
      <text x="1351.4185" font-size="14px" y="1245.7559" clip-path="url(#clipPath2)" font-family="sans-serif" stroke="none" xml:space="preserve">NFKBIA;</text>
      <text x="1352.2217" font-size="14px" y="1262.2441" clip-path="url(#clipPath2)" font-family="sans-serif" stroke="none" xml:space="preserve">NFKBIB;</text>
      <text x="1354.6689" font-size="14px" y="1278.7324" clip-path="url(#clipPath2)" font-family="sans-serif" stroke="none" xml:space="preserve">NFKBIE</text>
    </g>
    <g text-rendering="geometricPrecision" stroke-miterlimit="1.45" shape-rendering="geometricPrecision" transform="matrix(0.7,0,0,0.7,15.4,15.4)" stroke-linecap="butt">
      <path fill="none" d="M368 1151.4648 L368 1211.9163" clip-path="url(#clipPath2)"/>
      <path fill="white" d="M368 1226.9163 L374 1210.9163 L362 1210.9163 Z" clip-path="url(#clipPath2)" stroke="none"/>
      <path fill="none" d="M368 1226.9163 L374 1210.9163 L362 1210.9163 Z" clip-path="url(#clipPath2)"/>
      <path fill="none" d="M178 1151.4648 L178 1161.4648 L178.625 1165.8398 L180.5 1168.9648 L183.625 1170.8398 L188 1171.4648 L308 1171.4648 L312.375 1172.0898 L315.5 1173.9648 L317.375 1177.0898 L318 1181.4648 L318 1211.926" clip-path="url(#clipPath2)"/>
      <path fill="white" d="M318 1226.926 L324 1210.926 L312 1210.926 Z" clip-path="url(#clipPath2)" stroke="none"/>
      <path fill="none" d="M318 1226.926 L324 1210.926 L312 1210.926 Z" clip-path="url(#clipPath2)"/>
      <path fill="none" d="M343 1286.9531 L343 1771.9531 L343.625 1776.3281 L345.5 1779.4531 L348.625 1781.3281 L353 1781.9531 L716.8889 1781.9531 L721.2639 1782.5781 L724.3889 1784.4531 L726.2639 1787.5781 L726.8889 1791.9531 L726.8889 1886.9531 L727.5139 1891.3281 L729.3889 1894.4531 L732.5139 1896.3281 L736.8889 1896.9531 L770.7778 1896.9531 L775.1528 1897.577 L778.2778 1899.4489 L780.1528 1902.5685 L780.7778 1906.936 L780.7778 1916.9189" clip-path="url(#clipPath2)"/>
      <path fill="white" d="M780.7778 1931.9189 L786.7778 1915.9189 L774.7778 1915.9189 Z" clip-path="url(#clipPath2)" stroke="none"/>
      <path fill="none" d="M780.7778 1931.9189 L786.7778 1915.9189 L774.7778 1915.9189 Z" clip-path="url(#clipPath2)"/>
      <path fill="none" d="M913 1151.4648 L913 1156.4648 L913.625 1158.6523 L915.5 1160.2148 L923 1161.4648 L943 1161.4648 L947.375 1162.0898 L950.5 1163.9648 L952.375 1167.0898 L953 1171.4648 L953 1401.922" clip-path="url(#clipPath2)"/>
      <path fill="white" d="M953 1416.922 L959 1400.922 L947 1400.922 Z" clip-path="url(#clipPath2)" stroke="none"/>
      <path fill="none" d="M953 1416.922 L959 1400.922 L947 1400.922 Z" clip-path="url(#clipPath2)"/>
      <path fill="none" d="M1083 1151.4648 L1083 1391.9531 L1082.375 1396.3281 L1080.5 1399.4531 L1077.375 1401.3281 L1073 1401.9531 L1003 1401.9531 L998.625 1402.4209 L995.5 1403.8245 L993.625 1406.1636 L993 1409.4385 L993 1416.9238" clip-path="url(#clipPath2)"/>
      <path fill="white" d="M993 1416.9238 L999 1400.9238 L987 1400.9238 Z" clip-path="url(#clipPath2)" stroke="none"/>
      <path fill="none" d="M993 1416.9238 L999 1400.9238 L987 1400.9238 Z" clip-path="url(#clipPath2)"/>
      <path fill="none" d="M986.3333 1476.9531 L986.3333 1876.9531 L985.7083 1881.3281 L983.8333 1884.4531 L980.7083 1886.3281 L976.3333 1886.9531 L824.1111 1886.9531 L819.7361 1887.5781 L816.6111 1889.4531 L814.7361 1892.5781 L814.1111 1896.9531 L814.1111 1916.9092" clip-path="url(#clipPath2)"/>
      <path fill="white" d="M814.1111 1931.9092 L820.1111 1915.9092 L808.1111 1915.9092 Z" clip-path="url(#clipPath2)" stroke="none"/>
      <path fill="none" d="M814.1111 1931.9092 L820.1111 1915.9092 L808.1111 1915.9092 Z" clip-path="url(#clipPath2)"/>
      <path fill="none" d="M598 1151.4648 L598 1156.4648 L598.625 1158.6523 L600.5 1160.2148 L608 1161.4648 L694.6667 1161.4648 L699.0417 1162.0898 L702.1667 1163.9648 L704.0417 1167.0898 L704.6667 1171.4648 L704.6667 1486.9116" clip-path="url(#clipPath2)"/>
      <path fill="white" d="M704.6667 1501.9116 L710.6667 1485.9116 L698.6667 1485.9116 Z" clip-path="url(#clipPath2)" stroke="none"/>
      <path fill="none" d="M704.6667 1501.9116 L710.6667 1485.9116 L698.6667 1485.9116 Z" clip-path="url(#clipPath2)"/>
      <path fill="none" d="M919.6667 1476.9531 L919.6667 1481.9531 L919.0417 1484.1406 L917.1667 1485.7031 L909.6667 1486.9531 L781.3333 1486.9531 L776.9583 1487.4209 L773.8333 1488.8245 L771.9583 1491.1636 L771.3333 1494.4385 L771.3333 1501.9238" clip-path="url(#clipPath2)"/>
      <path fill="white" d="M771.3333 1501.9238 L777.3333 1485.9238 L765.3333 1485.9238 Z" clip-path="url(#clipPath2)" stroke="none"/>
      <path fill="none" d="M771.3333 1501.9238 L777.3333 1485.9238 L765.3333 1485.9238 Z" clip-path="url(#clipPath2)"/>
      <path fill="none" d="M728 1141.4648 L728 1146.4648 L729.25 1150.2148 L733 1151.4648 L733 1151.4648 L735.1875 1152.0898 L736.75 1153.9648 L738 1161.4648 L738 1486.9104" clip-path="url(#clipPath2)"/>
      <path fill="white" d="M738 1501.9104 L744 1485.9104 L732 1485.9104 Z" clip-path="url(#clipPath2)" stroke="none"/>
      <path fill="none" d="M738 1501.9104 L744 1485.9104 L732 1485.9104 Z" clip-path="url(#clipPath2)"/>
      <path fill="none" d="M738 1561.9531 L738 1876.9531 L738.625 1881.3281 L740.5 1884.4531 L743.625 1886.3281 L748 1886.9531 L781.8889 1886.9531 L786.2639 1887.5781 L789.3889 1889.4531 L791.2639 1892.5781 L791.8889 1896.9531 L791.8889 1916.9092" clip-path="url(#clipPath2)"/>
      <path fill="white" d="M791.8889 1931.9092 L797.8889 1915.9092 L785.8889 1915.9092 Z" clip-path="url(#clipPath2)" stroke="none"/>
      <path fill="none" d="M791.8889 1931.9092 L797.8889 1915.9092 L785.8889 1915.9092 Z" clip-path="url(#clipPath2)"/>
      <path fill="none" d="M1163 1151.4648 L1163 1156.4648 L1163.625 1158.6523 L1165.5 1160.2148 L1173 1161.4648 L1203 1161.4648 L1207.375 1162.0898 L1210.5 1163.9648 L1212.375 1167.0898 L1213 1171.4648 L1213 1296.9531 L1213.625 1301.3281 L1215.5 1304.4531 L1218.625 1306.3281 L1223 1306.9531 L1328 1306.9531 L1332.375 1307.4209 L1335.5 1308.8245 L1337.375 1311.1636 L1338 1314.4385 L1338 1321.9238" clip-path="url(#clipPath2)"/>
      <path fill="white" d="M1338 1321.9238 L1344 1305.9238 L1332 1305.9238 Z" clip-path="url(#clipPath2)" stroke="none"/>
      <path fill="none" d="M1338 1321.9238 L1344 1305.9238 L1332 1305.9238 Z" clip-path="url(#clipPath2)"/>
      <path fill="none" d="M1633 1151.4648 L1633 1161.4648 L1632.375 1165.8398 L1630.5 1168.9648 L1627.375 1170.8398 L1623 1171.4648 L1453 1171.4648 L1448.625 1172.0898 L1445.5 1173.9648 L1443.625 1177.0898 L1443 1181.4648 L1443 1286.9531 L1442.375 1291.3281 L1440.5 1294.4531 L1437.375 1296.3281 L1433 1296.9531 L1408 1296.9531 L1400.5 1298.197 L1398.625 1299.752 L1398 1301.9287 L1398 1306.9043" clip-path="url(#clipPath2)"/>
      <path fill="white" d="M1398 1321.9043 L1404 1305.9043 L1392 1305.9043 Z" clip-path="url(#clipPath2)" stroke="none"/>
      <path fill="none" d="M1398 1321.9043 L1404 1305.9043 L1392 1305.9043 Z" clip-path="url(#clipPath2)"/>
      <path fill="none" d="M1313 1151.4648 L1313 1286.9531 L1313.625 1291.3281 L1315.5 1294.4531 L1318.625 1296.3281 L1323 1296.9531 L1348 1296.9531 L1355.5 1298.197 L1357.375 1299.752 L1358 1301.9287 L1358 1306.9043" clip-path="url(#clipPath2)"/>
      <path fill="white" d="M1358 1321.9043 L1364 1305.9043 L1352 1305.9043 Z" clip-path="url(#clipPath2)" stroke="none"/>
      <path fill="none" d="M1358 1321.9043 L1364 1305.9043 L1352 1305.9043 Z" clip-path="url(#clipPath2)"/>
      <path fill="none" d="M1823 1151.4648 L1823 1171.4648 L1822.375 1175.8398 L1820.5 1178.9648 L1817.375 1180.8398 L1813 1181.4648 L1473 1181.4648 L1468.625 1182.0898 L1465.5 1183.9648 L1463.625 1187.0898 L1463 1191.4648 L1463 1296.9531 L1462.375 1301.3281 L1460.5 1304.4531 L1457.375 1306.3281 L1453 1306.9531 L1428 1306.9531 L1423.625 1307.4209 L1420.5 1308.8245 L1418.625 1311.1636 L1418 1314.4385 L1418 1321.9238" clip-path="url(#clipPath2)"/>
      <path fill="white" d="M1418 1321.9238 L1424 1305.9238 L1412 1305.9238 Z" clip-path="url(#clipPath2)" stroke="none"/>
      <path fill="none" d="M1418 1321.9238 L1424 1305.9238 L1412 1305.9238 Z" clip-path="url(#clipPath2)"/>
      <path fill="none" d="M1378 1381.9531 L1378 1896.9531 L1377.375 1901.3281 L1375.5 1904.4531 L1372.375 1906.3281 L1368 1906.9531 L846.3333 1906.9531 L838.8333 1908.197 L836.9583 1909.752 L836.3333 1911.9287 L836.3333 1916.9043" clip-path="url(#clipPath2)"/>
      <path fill="white" d="M836.3333 1931.9043 L842.3333 1915.9043 L830.3333 1915.9043 Z" clip-path="url(#clipPath2)" stroke="none"/>
      <path fill="none" d="M836.3333 1931.9043 L842.3333 1915.9043 L830.3333 1915.9043 Z" clip-path="url(#clipPath2)"/>
      <path fill="none" d="M953 1476.9531 L953 1626.9531 L952.375 1631.3281 L950.5 1634.4531 L947.375 1636.3281 L943 1636.9531 L854.6667 1636.9531 L850.2917 1637.5781 L847.1667 1639.4531 L845.2917 1642.5781 L844.6667 1646.9531 L844.6667 1671.9043" clip-path="url(#clipPath2)"/>
      <path fill="white" d="M844.6667 1686.9043 L850.6667 1670.9043 L838.6667 1670.9043 Z" clip-path="url(#clipPath2)" stroke="none"/>
      <path fill="none" d="M844.6667 1686.9043 L850.6667 1670.9043 L838.6667 1670.9043 Z" clip-path="url(#clipPath2)"/>
      <path fill="none" d="M803 1746.9531 L803 1916.908" clip-path="url(#clipPath2)"/>
      <path fill="white" d="M803 1931.908 L809 1915.908 L797 1915.908 Z" clip-path="url(#clipPath2)" stroke="none"/>
      <path fill="none" d="M803 1931.908 L809 1915.908 L797 1915.908 Z" clip-path="url(#clipPath2)"/>
      <path fill="none" d="M794.6667 1686.9043 L794.6667 1646.9531 L794.0417 1642.5781 L792.1667 1639.4531 L789.0417 1637.5781 L784.6667 1636.9531 L781.3333 1636.9531 L776.9583 1636.3281 L773.8333 1634.4531 L771.9583 1631.3281 L771.3333 1626.9531 L771.3333 1576.9531" clip-path="url(#clipPath2)"/>
      <path fill="white" d="M771.3333 1561.9531 L765.3333 1577.9531 L777.3333 1577.9531 Z" clip-path="url(#clipPath2)" stroke="none"/>
      <path fill="none" d="M771.3333 1561.9531 L765.3333 1577.9531 L777.3333 1577.9531 Z" clip-path="url(#clipPath2)"/>
      <path fill="none" d="M1148 1286.9531 L1148 1886.9531 L1147.375 1891.3281 L1145.5 1894.4531 L1142.375 1896.3281 L1138 1896.9531 L835.2222 1896.9531 L830.8472 1897.577 L827.7222 1899.4489 L825.8472 1902.5685 L825.2222 1906.936 L825.2222 1916.9189" clip-path="url(#clipPath2)"/>
      <path fill="white" d="M825.2222 1931.9189 L831.2222 1915.9189 L819.2222 1915.9189 Z" clip-path="url(#clipPath2)" stroke="none"/>
      <path fill="none" d="M825.2222 1931.9189 L831.2222 1915.9189 L819.2222 1915.9189 Z" clip-path="url(#clipPath2)"/>
      <path fill="none" d="M1528 1286.9531 L1528 1906.9531 L1527.375 1911.3281 L1525.5 1914.4531 L1522.375 1916.3281 L1518 1916.9531 L857.4445 1916.9531 L853.0695 1917.4209 L849.9445 1918.8245 L848.0695 1921.1636 L847.4445 1924.4385 L847.4445 1931.9238" clip-path="url(#clipPath2)"/>
      <path fill="white" d="M847.4445 1931.9238 L853.4445 1915.9238 L841.4445 1915.9238 Z" clip-path="url(#clipPath2)" stroke="none"/>
      <path fill="none" d="M847.4445 1931.9238 L853.4445 1915.9238 L841.4445 1915.9238 Z" clip-path="url(#clipPath2)"/>
      <path fill="none" d="M778 1141.4648 L778 1151.4648 L778.625 1155.8398 L780.5 1158.9648 L783.625 1160.8398 L788 1161.4648 L858 1161.4648 L862.375 1162.0898 L865.5 1163.9648 L867.375 1167.0898 L868 1171.4648 L868 1211.9211" clip-path="url(#clipPath2)"/>
      <path fill="white" d="M868 1226.9211 L874 1210.9211 L862 1210.9211 Z" clip-path="url(#clipPath2)" stroke="none"/>
      <path fill="none" d="M868 1226.9211 L874 1210.9211 L862 1210.9211 Z" clip-path="url(#clipPath2)"/>
      <path fill="none" d="M901.3333 1286.9531 L901.3333 1291.9531 L901.9583 1294.1406 L903.8333 1295.7031 L911.3333 1296.9531 L923 1296.9531 L927.375 1297.5781 L930.5 1299.4531 L932.375 1302.5781 L933 1306.9531 L933 1401.9238" clip-path="url(#clipPath2)"/>
      <path fill="white" d="M933 1416.9238 L939 1400.9238 L927 1400.9238 Z" clip-path="url(#clipPath2)" stroke="none"/>
      <path fill="none" d="M933 1416.9238 L939 1400.9238 L927 1400.9238 Z" clip-path="url(#clipPath2)"/>
      <path fill="none" d="M834.6667 1286.9531 L834.6667 1291.9531 L834.0417 1294.1406 L832.1667 1295.7031 L824.6667 1296.9531 L813 1296.9531 L808.625 1297.5781 L805.5 1299.4531 L803.625 1302.5781 L803 1306.9531 L803 1616.9531 L804.0416 1624.4531 L805.3438 1626.3281 L807.1666 1626.9531 L807.1666 1626.9531 L808.9896 1627.5781 L810.2916 1629.4531 L811.3333 1636.9531 L811.3333 1671.9238" clip-path="url(#clipPath2)"/>
      <path fill="white" d="M811.3333 1686.9238 L817.3333 1670.9238 L805.3333 1670.9238 Z" clip-path="url(#clipPath2)" stroke="none"/>
      <path fill="none" d="M811.3333 1686.9238 L817.3333 1670.9238 L805.3333 1670.9238 Z" clip-path="url(#clipPath2)"/>
      <path fill="none" d="M868 1286.9531 L868 1306.9189" clip-path="url(#clipPath2)"/>
      <path fill="white" d="M868 1321.9189 L874 1305.9189 L862 1305.9189 Z" clip-path="url(#clipPath2)" stroke="none"/>
      <path fill="none" d="M868 1321.9189 L874 1305.9189 L862 1305.9189 Z" clip-path="url(#clipPath2)"/>
      <path fill="none" d="M893 1381.9531 L893 1386.9531 L893.625 1389.1406 L895.5 1390.7031 L903 1391.9531 L903 1391.9531 L910.5 1393.197 L912.375 1394.752 L913 1396.9287 L913 1401.9043" clip-path="url(#clipPath2)"/>
      <path fill="white" d="M913 1416.9043 L919 1400.9043 L907 1400.9043 Z" clip-path="url(#clipPath2)" stroke="none"/>
      <path fill="none" d="M913 1416.9043 L919 1400.9043 L907 1400.9043 Z" clip-path="url(#clipPath2)"/>
      <path fill="none" d="M843 1381.9531 L843 1616.9531 L842.5312 1621.3281 L841.125 1624.4531 L838.7812 1626.3281 L835.5 1626.9531 L835.5 1626.9531 L832.2188 1627.5781 L829.875 1629.4531 L828.4688 1632.5781 L828 1636.9531 L828 1671.9238" clip-path="url(#clipPath2)"/>
      <path fill="white" d="M828 1686.9238 L834 1670.9238 L822 1670.9238 Z" clip-path="url(#clipPath2)" stroke="none"/>
      <path fill="none" d="M828 1686.9238 L834 1670.9238 L822 1670.9238 Z" clip-path="url(#clipPath2)"/>
      <path fill="none" d="M628 506.4648 L628 536.4648 L628.625 540.8398 L630.5 543.9648 L633.625 545.8398 L638 546.4648 L643 546.4648 L647.375 547.0898 L650.5 548.9648 L652.375 552.0898 L653 556.4648 L653 1531.9531 L652.5833 1536.3281 L651.3334 1539.4531 L649.25 1541.3281 L646.3334 1541.9531 L646.3334 1541.9531 L643.4167 1542.5781 L641.3334 1544.4531 L640.0834 1547.5781 L639.6667 1551.9531 L639.6667 1571.9092" clip-path="url(#clipPath2)"/>
      <path fill="white" d="M639.6667 1586.9092 L645.6667 1570.9092 L633.6667 1570.9092 Z" clip-path="url(#clipPath2)" stroke="none"/>
      <path fill="none" d="M639.6667 1586.9092 L645.6667 1570.9092 L633.6667 1570.9092 Z" clip-path="url(#clipPath2)"/>
      <path fill="none" d="M778 1686.9043 L778 1671.9531 L777.375 1667.5781 L775.5 1664.4531 L772.375 1662.5781 L768 1661.9531 L716.3333 1661.9531 L711.9583 1661.4844 L708.8333 1660.0781 L706.9583 1657.7344 L706.3333 1654.4531 L706.3333 1646.9531" clip-path="url(#clipPath2)"/>
      <path fill="white" d="M706.3333 1646.9531 L700.3333 1662.9531 L712.3333 1662.9531 Z" clip-path="url(#clipPath2)" stroke="none"/>
      <path fill="none" d="M706.3333 1646.9531 L700.3333 1662.9531 L712.3333 1662.9531 Z" clip-path="url(#clipPath2)"/>
      <path fill="none" d="M704.6667 1561.9531 L704.6667 1566.9531 L705.5 1571.9531 L705.5 1571.9531 L706.3333 1579.4385 L706.3333 1586.9238" clip-path="url(#clipPath2)"/>
      <path fill="white" d="M706.3333 1586.9238 L712.3333 1570.9238 L700.3333 1570.9238 Z" clip-path="url(#clipPath2)" stroke="none"/>
      <path fill="none" d="M706.3333 1586.9238 L712.3333 1570.9238 L700.3333 1570.9238 Z" clip-path="url(#clipPath2)"/>
      <path fill="none" d="M730.5 280.9766 L730.5 506.4648 L729.875 510.8398 L728 513.9648 L724.875 515.8398 L720.5 516.4648 L683 516.4648 L678.625 517.0898 L675.5 518.9648 L673.625 522.0898 L673 526.4648 L673 1571.9204" clip-path="url(#clipPath2)"/>
      <path fill="white" d="M673 1586.9204 L679 1570.9204 L667 1570.9204 Z" clip-path="url(#clipPath2)" stroke="none"/>
      <path fill="none" d="M673 1586.9204 L679 1570.9204 L667 1570.9204 Z" clip-path="url(#clipPath2)"/>
      <path fill="none" d="M639.6667 1646.9531 L639.6667 1761.9531 L639.0417 1766.3281 L637.1667 1769.4531 L634.0417 1771.3281 L629.6667 1771.9531 L163 1771.9531 L158.625 1772.4209 L155.5 1773.8245 L153.625 1776.1636 L153 1779.4385 L153 1786.9238" clip-path="url(#clipPath2)"/>
      <path fill="white" d="M153 1786.9238 L159 1770.9238 L147 1770.9238 Z" clip-path="url(#clipPath2)" stroke="none"/>
      <path fill="none" d="M153 1786.9238 L159 1770.9238 L147 1770.9238 Z" clip-path="url(#clipPath2)"/>
      <path fill="none" d="M673 1646.9531 L673 1661.9531 L673.625 1666.3281 L675.5 1669.4531 L678.625 1671.3281 L683 1671.9531 L751.3333 1671.9531 L755.7083 1672.4209 L758.8333 1673.8245 L760.7083 1676.1636 L761.3333 1679.4385 L761.3333 1686.9238" clip-path="url(#clipPath2)"/>
      <path fill="white" d="M761.3333 1686.9238 L767.3333 1670.9238 L755.3333 1670.9238 Z" clip-path="url(#clipPath2)" stroke="none"/>
      <path fill="none" d="M761.3333 1686.9238 L767.3333 1670.9238 L755.3333 1670.9238 Z" clip-path="url(#clipPath2)"/>
      <path fill="none" d="M1028 861.4648 L1028 1256.9531 L1028.4688 1261.3281 L1029.875 1264.4531 L1032.2188 1266.3281 L1035.5 1266.9531 L1035.5 1266.9531 L1038.7812 1267.5781 L1041.125 1269.4531 L1042.5312 1272.5781 L1043 1276.9531 L1043 1306.9263" clip-path="url(#clipPath2)"/>
      <path fill="white" d="M1043 1321.9263 L1049 1305.9263 L1037 1305.9263 Z" clip-path="url(#clipPath2)" stroke="none"/>
      <path fill="none" d="M1043 1321.9263 L1049 1305.9263 L1037 1305.9263 Z" clip-path="url(#clipPath2)"/>
      <path fill="none" d="M977.4841 1041.4648 L977.4841 1046.4648 L978.1091 1048.6523 L979.9841 1050.2148 L987.4841 1051.4648 L998 1051.4648 L1002.375 1052.0898 L1005.5 1053.9648 L1007.375 1057.0898 L1008 1061.4648 L1008 1256.9531 L1007.5312 1261.3281 L1006.125 1264.4531 L1003.7812 1266.3281 L1000.5 1266.9531 L1000.5 1266.9531 L997.2188 1267.5781 L994.875 1269.4531 L993.4688 1272.5781 L993 1276.9531 L993 1306.9263" clip-path="url(#clipPath2)"/>
      <path fill="white" d="M993 1321.9263 L999 1305.9263 L987 1305.9263 Z" clip-path="url(#clipPath2)" stroke="none"/>
      <path fill="none" d="M993 1321.9263 L999 1305.9263 L987 1305.9263 Z" clip-path="url(#clipPath2)"/>
      <path fill="none" d="M1018 1381.9531 L1018 1386.9531 L1017.375 1389.1406 L1015.5 1390.7031 L1008 1391.9531 L983 1391.9531 L975.5 1393.197 L973.625 1394.752 L973 1396.9287 L973 1401.9043" clip-path="url(#clipPath2)"/>
      <path fill="white" d="M973 1416.9043 L979 1400.9043 L967 1400.9043 Z" clip-path="url(#clipPath2)" stroke="none"/>
      <path fill="none" d="M973 1416.9043 L979 1400.9043 L967 1400.9043 Z" clip-path="url(#clipPath2)"/>
      <path fill="none" d="M1443 946.4648 L1443 951.4648 L1443.625 953.6523 L1445.5 955.2148 L1453 956.4648 L1528 956.4648 L1532.375 957.0898 L1535.5 958.9648 L1537.375 962.0898 L1538 966.4648 L1538 1151.4648 L1537.375 1155.8398 L1535.5 1158.9648 L1532.375 1160.8398 L1528 1161.4648 L1388 1161.4648 L1383.625 1162.0898 L1380.5 1163.9648 L1378.625 1167.0898 L1378 1171.4648 L1378 1211.9211" clip-path="url(#clipPath2)"/>
      <path fill="white" d="M1378 1226.9211 L1384 1210.9211 L1372 1210.9211 Z" clip-path="url(#clipPath2)" stroke="none"/>
      <path fill="none" d="M1378 1226.9211 L1384 1210.9211 L1372 1210.9211 Z" clip-path="url(#clipPath2)"/>
      <path fill="none" d="M1378 1286.9531 L1378 1306.9189" clip-path="url(#clipPath2)"/>
      <path fill="white" d="M1378 1321.9189 L1384 1305.9189 L1372 1305.9189 Z" clip-path="url(#clipPath2)" stroke="none"/>
      <path fill="none" d="M1378 1321.9189 L1384 1305.9189 L1372 1305.9189 Z" clip-path="url(#clipPath2)"/>
    </g>
  </g>
</svg>
